<?xml version="1.0" encoding="UTF-8" standalone="no"?>
<svg
   xmlns:dc="http://purl.org/dc/elements/1.1/"
   xmlns:cc="http://creativecommons.org/ns#"
   xmlns:rdf="http://www.w3.org/1999/02/22-rdf-syntax-ns#"
   xmlns:svg="http://www.w3.org/2000/svg"
   xmlns="http://www.w3.org/2000/svg"
   xmlns:xlink="http://www.w3.org/1999/xlink"
   xmlns:sodipodi="http://sodipodi.sourceforge.net/DTD/sodipodi-0.dtd"
   xmlns:inkscape="http://www.inkscape.org/namespaces/inkscape"
   id="OBJECTS"
   viewBox="0 0 223.82 187.94"
   version="1.1"
   sodipodi:docname="details-1-office-worker.svg"
   inkscape:version="1.0 (b51213c273, 2020-08-10)">
  <metadata
     id="metadata163">
    <rdf:RDF>
      <cc:Work
         rdf:about="">
        <dc:format>image/svg+xml</dc:format>
        <dc:type
           rdf:resource="http://purl.org/dc/dcmitype/StillImage" />
      </cc:Work>
    </rdf:RDF>
  </metadata>
  <sodipodi:namedview
     pagecolor="#ffffff"
     bordercolor="#666666"
     borderopacity="1"
     objecttolerance="10"
     gridtolerance="10"
     guidetolerance="10"
     inkscape:pageopacity="0"
     inkscape:pageshadow="2"
     inkscape:window-width="1360"
     inkscape:window-height="731"
     id="namedview161"
     showgrid="false"
     inkscape:zoom="1.8134802"
     inkscape:cx="174.71956"
     inkscape:cy="71.598359"
     inkscape:window-x="0"
     inkscape:window-y="0"
     inkscape:window-maximized="1"
     inkscape:current-layer="OBJECTS" />
  <defs
     id="defs24">
    <style
       id="style2">.cls-1{fill:#f0f0f0;}.cls-2{fill:url(#linear-gradient);}.cls-3{clip-path:url(#clip-path);}.cls-4{clip-path:url(#clip-path-2);}.cls-5{fill:url(#linear-gradient-4);}.cls-6{fill:#d1e8e6;}.cls-7{fill:#00bfd8;}.cls-8{fill:#fff;}.cls-9{fill:#c5e0e2;}.cls-10{fill:#dfe2ef;}.cls-11{fill:#3d415b;}.cls-12,.cls-26{fill:none;stroke:#3d415b;stroke-miterlimit:10;}.cls-12{stroke-width:2.496px;}.cls-13{fill:#ffe0bc;}.cls-14{fill:#efc9a3;}.cls-15{fill:#129093;}.cls-16{fill:#303348;}.cls-17{fill:#282c3c;}.cls-18{fill:#007c86;}.cls-19{fill:#c2dff1;}.cls-20{fill:#a5c3d3;}.cls-21{fill:#ecf2f5;}.cls-22{fill:#fcd8b6;}.cls-23{fill:#29323d;}.cls-24{fill:#33d18d;}.cls-25{fill:#8b4200;}.cls-26{stroke-width:2px;}</style>
    <linearGradient
       id="linear-gradient"
       x1="11.085"
       y1="94.946"
       x2="205.828"
       y2="94.946"
       gradientUnits="userSpaceOnUse">
      <stop
         offset="0"
         stop-color="#00bfc2"
         id="stop4" />
      <stop
         offset="0.246"
         stop-color="#00bbc5"
         id="stop6" />
      <stop
         offset="0.49"
         stop-color="#00afcf"
         id="stop8" />
      <stop
         offset="0.732"
         stop-color="#009bdf"
         id="stop10" />
      <stop
         offset="0.972"
         stop-color="#0080f5"
         id="stop12" />
      <stop
         offset="1"
         stop-color="#007cf8"
         id="stop14" />
    </linearGradient>
    <clipPath
       id="clip-path">
      <path
         class="cls-1"
         d="M142.192,78.942C107.7,58.1,91.425-5.932,38.182,32.332S7.017,149.21,58.038,168.223s116.665,8.272,135.138-27.048C224.741,80.823,165.328,92.923,142.192,78.942Z"
         id="path17" />
    </clipPath>
    <clipPath
       id="clip-path-2">
      <path
         class="cls-2"
         d="M145.8,74.942C111.315,54.1,95.036-9.932,41.793,28.332S10.628,145.21,61.65,164.223s116.665,8.272,135.138-27.048C228.353,76.823,168.939,88.923,145.8,74.942Z"
         id="path20" />
    </clipPath>
    <linearGradient
       id="linear-gradient-4"
       x1="5.899"
       y1="120.193"
       x2="217.355"
       y2="120.193"
       xlink:href="#linear-gradient" />
    <linearGradient
       id="019be7ee-c174-4831-83df-34be516e09e3"
       x1="477.63"
       y1="628.28998"
       x2="583.5"
       y2="628.28998"
       xlink:href="#c4984e62-c3a2-4d63-a7f1-72d003cbf332" />
    <linearGradient
       id="c4984e62-c3a2-4d63-a7f1-72d003cbf332"
       x1="337.01999"
       y1="284.70001"
       x2="337.01999"
       y2="157.05"
       gradientUnits="userSpaceOnUse">
      <stop
         offset="0"
         stop-color="gray"
         stop-opacity="0.25"
         id="stop2" />
      <stop
         offset="0.54"
         stop-color="gray"
         stop-opacity="0.12"
         id="stop4-3" />
      <stop
         offset="1"
         stop-color="gray"
         stop-opacity="0.1"
         id="stop6-6" />
    </linearGradient>
    <linearGradient
       id="aa3e344a-b185-47a1-8d72-ce117b4596cd"
       x1="1022.23"
       y1="742.95001"
       x2="1022.23"
       y2="530.73999"
       xlink:href="#c4984e62-c3a2-4d63-a7f1-72d003cbf332" />
    <linearGradient
       id="d81b2846-b84e-4cfc-aa5a-6d397f959497"
       x1="445.5"
       y1="447"
       x2="445.5"
       y2="83.790001"
       xlink:href="#c4984e62-c3a2-4d63-a7f1-72d003cbf332"
       gradientTransform="matrix(0.21837559,0,0,0.21837559,5.9000025,51.410134)" />
    <linearGradient
       id="ae1c94bd-8073-45d7-9d65-5e742daca578"
       x1="277.82001"
       y1="250.69"
       x2="277.82001"
       y2="249.92"
       xlink:href="#c4984e62-c3a2-4d63-a7f1-72d003cbf332" />
    <linearGradient
       inkscape:collect="always"
       xlink:href="#c4984e62-c3a2-4d63-a7f1-72d003cbf332"
       id="linearGradient271"
       gradientUnits="userSpaceOnUse"
       x1="337.01999"
       y1="284.70001"
       x2="337.01999"
       y2="157.05" />
  </defs>
  <title
     id="title26">details-1-office-worker</title>
  <path
     class="cls-1"
     d="M142.192,78.942C107.7,58.1,91.425-5.932,38.182,32.332S7.017,149.21,58.038,168.223s116.665,8.272,135.138-27.048C224.741,80.823,165.328,92.923,142.192,78.942Z"
     id="path28" />
  <path
     class="cls-1"
     d="M142.192,78.942C107.7,58.1,91.425-5.932,38.182,32.332S7.017,149.21,58.038,168.223s116.665,8.272,135.138-27.048C224.741,80.823,165.328,92.923,142.192,78.942Z"
     id="path30" />
  <g
     class="cls-3"
     clip-path="url(#clip-path)"
     id="g34">
    <path
       class="cls-1"
       d="M2.287,153.024s29.411-29.492,78.534-15.5,78.045,2,71.946-72.159c0,0,69.044,9.633,60.192,58.693C202.217,183.6,63.55,206.319,2.287,153.024Z"
       id="path32" />
  </g>
  <path
     class="cls-2"
     d="M145.8,74.942C111.315,54.1,95.036-9.932,41.793,28.332S10.628,145.21,61.65,164.223s116.665,8.272,135.138-27.048C228.353,76.823,168.939,88.923,145.8,74.942Z"
     id="path36" />
  <path
     class="cls-2"
     d="M145.8,74.942C111.315,54.1,95.036-9.932,41.793,28.332S10.628,145.21,61.65,164.223s116.665,8.272,135.138-27.048C228.353,76.823,168.939,88.923,145.8,74.942Z"
     id="path38" />
  <g
     class="cls-4"
     clip-path="url(#clip-path-2)"
     id="g42">
    <path
       class="cls-5"
       d="m 5.9,149.024 c 0,0 29.411,-29.492 78.534,-15.5 49.123,13.992 78.045,2 71.946,-72.159 0,0 69.044,9.633 60.192,58.693 C 205.828,179.6 67.161,202.319 5.9,149.024 Z"
       id="path40"
       style="fill:url(#linear-gradient-4)" />
  </g>
  <circle
     class="cls-8"
     cx="3.963"
     cy="27.177"
     r="0.942"
     id="circle48" />
  <circle
     class="cls-8"
     cx="7.733"
     cy="27.177"
     r="0.942"
     id="circle50" />
  <circle
     class="cls-8"
     cx="11.504"
     cy="27.177"
     r="0.942"
     id="circle52" />
  <path
     class="cls-8"
     d="M95.607,48.2l-0.466-1.335L94.675,48.2a4.661,4.661,0,0,1-2.589,2.636h0a4.66,4.66,0,0,1,2.589,2.636l0.466,1.335,0.466-1.335A4.661,4.661,0,0,1,98.2,50.837h0A4.661,4.661,0,0,1,95.607,48.2Z"
     id="path64" />
  <path
     class="cls-8"
     d="M53.5,124.5l-0.466-1.335L52.573,124.5a4.661,4.661,0,0,1-2.589,2.636h0a4.661,4.661,0,0,1,2.589,2.636l0.466,1.335,0.466-1.335a4.66,4.66,0,0,1,2.589-2.636h0A4.66,4.66,0,0,1,53.5,124.5Z"
     id="path66" />
  <path
     class="cls-8"
     d="M33.155,72.168l-0.308-.881-0.307.881a3.074,3.074,0,0,1-1.708,1.739h0a3.075,3.075,0,0,1,1.708,1.739l0.307,0.881,0.308-.881a3.075,3.075,0,0,1,1.708-1.739h0A3.075,3.075,0,0,1,33.155,72.168Z"
     id="path70" />
  <path
     class="cls-8"
     d="M107.807,15.447h6.886a0.962,0.962,0,0,1,.962.962h0a0.962,0.962,0,0,1-.962.962h-6.886a0.962,0.962,0,0,1-.962-0.962h0A0.962,0.962,0,0,1,107.807,15.447Z"
     id="path74" />
  <path
     class="cls-8"
     d="M107.807,10.63H120.5a0.962,0.962,0,0,1,.962.962h0a0.962,0.962,0,0,1-.962.962H107.807a0.962,0.962,0,0,1-.962-0.962h0A0.962,0.962,0,0,1,107.807,10.63Z"
     id="path76" />
  <path
     class="cls-8"
     d="M206.306,44.678h10.4a0.973,0.973,0,0,1,.973.973v9.775a0.974,0.974,0,0,1-.974.974h-10.4a0.973,0.973,0,0,1-.973-0.973V45.652A0.974,0.974,0,0,1,206.306,44.678Z"
     transform="translate(423.009 101.078) rotate(180)"
     id="path140" />
  <g
     opacity="0.5"
     id="g21"
     transform="matrix(0.21837558,0,0,0.21837558,5.9000025,51.410132)">
    <path
       d="m 353.32,212.24 c 1,-4.57 1.57,-8.3 1.16,-10.18 l -0.41,0.06 0.63,-0.28 1.7,-1.57 h 0.05 l 1.4,-1.29 a 19.31,19.31 0 0 0 27.94,-8.82 c 1.69,1 3,1.43 3.22,0.55 a 42.78,42.78 0 0 0 2.08,-12.39 20.46,20.46 0 0 0 -0.47,-4.45 c -2.13,-9.49 -11.86,-15.85 -21.54,-16.75 -7.43,-0.69 -15.55,1.62 -20.05,7.57 -3.9,5.16 -11.57,8.62 -15,14.1 -2.77,4.42 -1.91,10.35 -3.22,15.44 a 45.57,45.57 0 0 0 -4.1,3 29.19,29.19 0 0 0 -7.93,7.86 112.53,112.53 0 0 0 -9.26,12.42 c -14.86,22.83 -23.86,30.25 -28.93,32.35 l 42.62,0.27 a 107.59,107.59 0 0 0 29,34.48 l 0.26,-0.14 0.18,0.15 7.06,-3.91 a 156.05,156.05 0 0 1 -16.56,-35.25 c 1,-2.8 2.29,-6.6 3.67,-10.82 9.82,13.22 24.07,27.66 43.48,36.48 l 3.15,-5.6 c 0,0 -25.09,-21.86 -40.13,-53.28 z"
       transform="translate(-137.5,-157.05)"
       fill="url(#c4984e62-c3a2-4d63-a7f1-72d003cbf332)"
       id="path17-7"
       style="fill:url(#linearGradient271)" />
    <path
       d="m 280.61,250 h -5.57 c 0,0 1.53,1.62 5.57,0 z"
       transform="translate(-137.5,-157.05)"
       fill="url(#ae1c94bd-8073-45d7-9d65-5e742daca578)"
       id="path19"
       style="fill:url(#ae1c94bd-8073-45d7-9d65-5e742daca578)" />
  </g>
  <path
     d="m 50.850432,67.390854 c 1.965384,2.812679 4.959316,6.064294 9.17178,7.983815 l 0.626729,-1.115902 c 0,0 -7.424765,-6.490124 -9.597604,-14.976198 l -0.218368,0.189991 c -1.851828,1.611608 -1.851828,5.236645 0.01747,7.918294 z"
     fill="#4d8af0"
     id="path23"
     style="stroke-width:0.218376" />
  <path
     d="m 50.850432,67.390854 c 1.965384,2.812679 4.959316,6.064294 9.17178,7.983815 l 0.626729,-1.115902 c 0,0 -7.424765,-6.490124 -9.597604,-14.976198 l -0.218368,0.189991 c -1.851828,1.611608 -1.851828,5.236645 0.01747,7.918294 z"
     opacity="0.05"
     id="path25"
     style="stroke-width:0.218376" />
  <polygon
     points="203.45,35.15 196.16,46.33 206.56,50.41 215.41,46.46 221.46,40.88 210.07,31.31 "
     fill="#fda57d"
     id="polygon27"
     transform="matrix(0.21837558,0,0,0.21837558,5.9000025,51.410132)" />
  <path
     d="m 50.370008,59.219242 c 0,0 -2.725327,-0.218378 -6.428982,5.476856 -5.31744,8.169438 -6.872279,6.437715 -6.872279,6.437715 l 13.224825,0.08299 c 0,0 2.941526,-8.040595 2.600857,-9.608526 0.0017,-0.0087 -2.541893,0.491345 -2.524421,-2.389032 z"
     fill="#4d8af0"
     id="path29"
     style="stroke-width:0.218376" />
  <path
     d="m 51.734853,58.219083 c 0.159421,1.155202 0.604902,2.439256 1.554837,3.031048 l 0.707537,-0.655126 -2.262374,-2.380292 z"
     opacity="0.1"
     id="path31"
     style="stroke-width:0.218376" />
  <circle
     cx="-57.365433"
     cy="55.948532"
     transform="rotate(-89.64)"
     fill="#fda57d"
     id="circle33"
     r="3.8543289"
     style="stroke-width:0.218376" />
  <path
     d="m 59.777628,59.345896 c 0.301362,-1.063486 0.56341,-2.183751 0.32102,-3.275628 -0.425832,-1.891134 -2.362831,-3.15771 -4.291086,-3.336782 -1.480588,-0.137573 -3.098753,0.323195 -3.994096,1.508975 -0.777414,1.026369 -0.90407,2.415239 -1.587586,3.507114 -0.633295,1.01108 -1.71425,1.720795 -2.183752,2.814859 a 0.68351559,0.68351559 0 0 0 -0.0655,0.478245 c 0.08516,0.251129 0.384347,0.338483 0.637659,0.414911 a 4.7802417,4.7802417 0 0 1 2.886925,2.441438 c -0.07204,-2.043991 1.404161,-3.775712 2.797391,-5.271585 0.655131,-0.698798 1.747015,-1.725165 2.729699,-1.072227 0.133189,0.104826 2.583377,2.375931 2.749331,1.79068 z"
     opacity="0.1"
     id="path35"
     style="stroke-width:0.218376" />
  <path
     d="m 52.400897,63.829151 c 0,0 0.775237,2.107323 -0.893157,2.79739"
     fill="#00b0ff"
     id="path37"
     style="stroke-width:0.218376" />
  <rect
     y="69.707809"
     width="194.57266"
     height="79.316193"
     fill="url(#d81b2846-b84e-4cfc-aa5a-6d397f959497)"
     id="rect39"
     x="5.9000001"
     style="fill:url(#d81b2846-b84e-4cfc-aa5a-6d397f959497);stroke-width:0.218376" />
  <rect
     x="7.4286275"
     y="70.845558"
     width="191.7338"
     height="76.86821"
     fill="#ffffff"
     id="rect41"
     style="stroke-width:0.218376" />
  <path
     d="m 52.85075,78.488704 v 20.308937 h 8.298273 v 5.459379 c 2.402138,-4.14913 5.896152,-5.459379 5.896152,-5.459379 H 100.23825 V 78.488704 Z"
     fill="#00b0ff"
     id="path43"
     style="stroke-width:0.218376" />
  <path
     d="m 20.312789,111.90017 v 15.72304 h 8.298272 v 5.45939 c 2.402131,-4.14914 5.896144,-5.45939 5.896144,-5.45939 H 71.41268 v -15.72304 z"
     fill="#00b0ff"
     id="path45"
     style="stroke-width:0.218376" />
  <path
     d="m 189.3355,88.97073 v 15.72304 h -8.29827 v 5.4594 c -2.40214,-4.14914 -5.89614,-5.4594 -5.89614,-5.4594 H 138.23561 V 88.97073 Z"
     fill="#e0e0e0"
     id="path47"
     style="stroke-width:0.218376" />
  <path
     d="m 189.3355,131.55397 v 8.95339 h -3.05725 v 5.45939 c -2.40214,-4.14912 -5.89615,-5.45939 -5.89615,-5.45939 H 94.560487 v -8.95339 z"
     fill="#e0e0e0"
     id="path49"
     style="stroke-width:0.218376" />
  <circle
     cx="185.18637"
     cy="135.92148"
     fill="#ffffff"
     id="circle51"
     r="1.5286292"
     style="stroke-width:0.218376" />
  <circle
     cx="180.81886"
     cy="135.92148"
     fill="#ffffff"
     id="circle53"
     r="1.5286292"
     style="stroke-width:0.218376" />
  <circle
     cx="176.45134"
     cy="135.92148"
     fill="#ffffff"
     id="circle55"
     r="1.5286292"
     style="stroke-width:0.218376" />
  <circle
     cx="172.08382"
     cy="135.92148"
     fill="#ffffff"
     id="circle57"
     r="1.5286292"
     style="stroke-width:0.218376" />
  <path
     d="m 45.011067,67.122254 a 21.4423,21.4423 0 0 0 7.424773,10.94935 l 1.406338,-0.7796 c 0,0 -5.987856,-8.883515 -4.179707,-17.544292 l -0.38434,0.08954 a 5.8066069,5.8066069 0 0 0 -4.267064,7.285012 z"
     opacity="0.1"
     id="path59"
     style="stroke-width:0.218376" />
  <path
     d="m 45.098424,67.122254 a 21.4423,21.4423 0 0 0 7.424765,10.94935 l 1.406338,-0.7796 c 0,0 -5.992228,-8.892253 -4.175335,-17.553028 l -0.384339,0.08954 a 5.8066069,5.8066069 0 0 0 -4.271429,7.293746 z"
     fill="#4d8af0"
     id="path61"
     style="stroke-width:0.218376" />
  <path
     d="m 59.777628,59.260731 c 0.301362,-1.063488 0.56341,-2.183753 0.32102,-3.275636 -0.425832,-1.891126 -2.362831,-3.157704 -4.291086,-3.336774 -1.480588,-0.137575 -3.098753,0.323194 -3.994096,1.508975 -0.777414,1.026368 -2.303858,1.716433 -2.987374,2.80831 -0.633295,1.011078 -0.314462,2.417418 -0.790514,3.513663 a 0.68351559,0.68351559 0 0 0 -0.0655,0.478244 c 0.08516,0.251128 0.384339,0.338483 0.637659,0.414912 a 4.7802417,4.7802417 0 0 1 2.886926,2.441437 c -0.07204,-2.043998 1.40416,-3.775712 2.79739,-5.271585 0.655131,-0.698804 1.746999,-1.725167 2.729683,-1.072226 0.139771,0.102642 2.589943,2.373748 2.755897,1.79068 z"
     fill="#333333"
     id="path63"
     style="stroke-width:0.218376" />
  <path
     d="m 52.560318,78.108732 c 0,0 2.039625,3.057257 2.478557,1.747003 0.43894,-1.310254 -1.019813,-2.620507 -1.019813,-2.620507 z"
     fill="#fda57d"
     id="path65"
     style="stroke-width:0.218376" />
  <ellipse
     cx="-28.238401"
     cy="74.88694"
     rx="1.019814"
     ry="0.43675119"
     transform="rotate(-63.43)"
     fill="#fda57d"
     id="ellipse67"
     style="stroke-width:0.218376" />
  <g
     opacity="0.5"
     id="g71"
     transform="matrix(0.21837558,0,0,0.21837558,5.9000025,51.410132)">
    <path
       d="m 1032.94,539.2 c 10.78,17.8 13.5,31.58 13.5,31.58 3.2,-57 -14.15,-36.7 -15.83,-35.74 v -0.07 l -5.8,3.35 a 13.34,13.34 0 0 0 -9.33,-3.93 13,13 0 0 0 -7,2.07 c -4.13,0.1 -7.43,2.2 -7.43,4.8 a 3.13,3.13 0 0 0 0.26,1.22 15,15 0 0 0 8.95,24.95 l 1.53,10.88 -2.42,1.9 a 13.37,13.37 0 0 0 -5.16,9.69 c -0.23,4 1.43,8.64 9,11 0,0 -0.13,1.39 -0.38,3.59 l -12.8,25.6 c 0,0 -5.12,11.73 0.37,12.08 7.89,-1.37 6.52,-4.46 7.55,-7.21 l 0.6,-2 h 3 c -2.45,13.4 -10.45,59.48 -9.65,86.62 v 7.85 l -0.51,3.89 -14.74,4.42 a 3.71,3.71 0 0 0 1.19,7.26 l 20.83,-0.69 a 3.71,3.71 0 0 0 3.58,-3.7 V 728 h 3.75 v -8.47 l 3.77,-45.19 0.49,-1.16 0.45,5.87 16.95,37.66 3.77,6.59 1.64,-0.88 -0.52,6.19 -6.86,6 a 3.71,3.71 0 0 0 -0.95,4.32 v 0 a 3.71,3.71 0 0 0 5,1.8 l 18.7,-9.2 a 3.71,3.71 0 0 0 1.74,-4.85 l -1.65,-3.65 a 3.69,3.69 0 0 0 -2.58,-2.08 l -3.54,-3.54 1.22,-0.66 -2.82,-6.59 -16.95,-39.54 -0.7,-22.26 a 15.07,15.07 0 0 0 7.14,-15.41 h 1.09 c 0,0 -2.4,-14 -3.65,-29.19 l -0.12,-1.48 V 600 c 0,0 -0.13,-0.72 -0.35,-1.88 -1.33,-15 -3.39,-27 -14.63,-28.33 l -0.08,0.07 v -4.63 a 17,17 0 0 0 7.29,-14.31 18.14,18.14 0 0 0 -2.18,-8.68 l 5.25,-3 z"
       transform="translate(-137.5,-157.05)"
       fill="url(#aa3e344a-b185-47a1-8d72-ce117b4596cd)"
       id="path69"
       style="fill:url(#aa3e344a-b185-47a1-8d72-ce117b4596cd)" />
  </g>
  <ellipse
     cx="197.70584"
     cy="137.98077"
     rx="3.0528905"
     ry="3.4874582"
     fill="#795548"
     id="ellipse73"
     style="stroke-width:0.218376" />
  <polygon
     points="875.2,574.59 864.24,574.59 865.15,567.59 875.2,566.37 "
     fill="#fda57d"
     id="polygon75"
     transform="matrix(0.21837558,0,0,0.21837558,5.9000025,51.410132)" />
  <path
     d="m 203.60198,173.68953 -0.19872,2.40214 h 0.13321 a 3.8434104,3.8434104 0 0 0 2.555,-0.97176 l 0.701,-0.62457 -1.79507,-1.79504 z"
     fill="#fda57d"
     id="path77"
     style="stroke-width:0.218376" />
  <polygon
     points="880.67,483.29 882.5,508.85 883.41,520.72 899.85,557.24 912.63,550.85 896.2,512.5 895.28,483.29 "
     fill="#4d8af0"
     id="polygon79"
     transform="matrix(0.21837558,0,0,0.21837558,5.9000025,51.410132)" />
  <polygon
     points="880.67,483.29 882.5,508.85 883.41,520.72 899.85,557.24 912.63,550.85 896.2,512.5 895.28,483.29 "
     opacity="0.05"
     id="polygon81"
     transform="matrix(0.21837558,0,0,0.21837558,5.9000025,51.410132)" />
  <path
     d="m 197.81939,147.978 -3.38919,6.76964 c 0,0 -1.09187,2.48512 0.0787,2.55718 1.67057,-0.29044 1.38013,-0.94557 1.5985,-1.52864 l 2.10951,-7.20639 z"
     fill="#fda57d"
     id="path83"
     style="stroke-width:0.218376" />
  <circle
     cx="197.07693"
     cy="138.33672"
     fill="#fda57d"
     id="circle85"
     r="3.1904674"
     style="stroke-width:0.218376" />
  <polygon
     points="875,424.72 872.46,406.6 885.24,406.6 885.24,419.38 "
     fill="#fda57d"
     id="polygon87"
     transform="matrix(0.21837558,0,0,0.21837558,5.9000025,51.410132)" />
  <path
     d="m 197.02232,154.55764 c 0,0 -2.40212,12.36006 -2.18375,19.14062 h 2.98956 l 0.79707,-9.5692 2.18374,-5.18425 c 0,0 2.98957,-0.99579 1.99378,-4.38717 z"
     fill="#4d8af0"
     id="path89"
     style="stroke-width:0.218376" />
  <rect
     x="194.82764"
     y="173.41656"
     width="2.9895616"
     height="2.0723844"
     fill="#4d8af0"
     id="rect91"
     style="stroke-width:0.218376" />
  <rect
     x="194.82764"
     y="173.41656"
     width="2.9895616"
     height="2.0723844"
     fill="#ffffff"
     opacity="0.05"
     id="rect93"
     style="stroke-width:0.218376" />
  <polygon
     points="903.28,563.69 915.37,557.32 912.14,549.82 899.48,556.39 "
     fill="#4d8af0"
     id="polygon95"
     transform="matrix(0.21837558,0,0,0.21837558,5.9000025,51.410132)" />
  <path
     d="m 195.35393,176.34062 -3.75387,0.77741 a 0.78396834,0.78396834 0 0 0 -0.55904,0.75121 v 0 a 0.78396834,0.78396834 0 0 0 0.81017,0.78398 l 4.41119,-0.14632 a 0.78396834,0.78396834 0 0 0 0.75777,-0.78398 v -0.84728 c 0,-0.43675 0.0851,-0.56559 -0.34724,-0.56559 h -1.09188 a 0.78396834,0.78396834 0 0 0 -0.2271,0.0306 z"
     fill="#333333"
     id="path97"
     style="stroke-width:0.218376" />
  <path
     d="m 199.23228,141.97921 -2.81703,2.21651 a 2.8388827,2.8388827 0 0 0 -1.09189,2.05275 c -0.0481,0.85166 0.30355,1.82998 1.89768,2.32788 0,0 -0.59835,6.38093 -1.59413,6.76963 h 7.57544 c 0,0 -0.50881,-2.95461 -0.77086,-6.18004 -0.30573,-3.7211 -0.5263,-6.86571 -3.19921,-7.18673 z"
     fill="#eeeeee"
     id="path99"
     style="stroke-width:0.218376" />
  <path
     d="m 199.21482,145.98422 1.79504,3.19047 -0.20963,7.17583 c 0,0 -0.99579,1.59412 -0.19872,1.79504 0.79705,0.2009 1.99376,-0.39962 1.79504,-1.59413 v -8.17599 c 0,0 -0.59836,-3.38918 -1.19671,-4.18626 z"
     fill="#fda57d"
     id="path101"
     style="stroke-width:0.218376" />
  <path
     d="m 204.94934,174.78142 -2.96116,2.09858 a 0.78396834,0.78396834 0 0 0 -0.20091,0.91499 v 0 a 0.78396834,0.78396834 0 0 0 1.06132,0.38217 l 3.96133,-1.94791 a 0.78396834,0.78396834 0 0 0 0.36905,-1.02637 l -0.34941,-0.77305 c -0.17906,-0.39527 -0.39306,-0.48042 -0.78832,-0.30136 l -1.0919,0.65512 c -0.07,0.0283 0.0568,-0.0524 0,-0.002 z"
     fill="#333333"
     id="path103"
     style="stroke-width:0.218376" />
  <polygon
     points="889.28,388.55 886.95,384.51 890.22,382.76 892.59,386.91 "
     fill="#795548"
     id="polygon105"
     transform="matrix(0.21837558,0,0,0.21837558,5.9000025,51.410132)" />
  <path
     d="m 200.30234,134.99775 c 0,0 4.78678,-5.04449 3.79317,7.2064 a 28.262169,28.262169 0 0 0 -3.27564,-6.29359 z"
     fill="#795548"
     id="path107"
     style="stroke-width:0.218376" />
  <ellipse
     cx="197.99625"
     cy="137.98077"
     rx="2.7624512"
     ry="3.0528905"
     fill="#795548"
     id="ellipse109"
     style="stroke-width:0.218376" />
  <ellipse
     cx="196.28857"
     cy="135.9455"
     rx="1.6356332"
     ry="1.0176302"
     fill="#795548"
     id="ellipse111"
     style="stroke-width:0.218376" />
  <g
     opacity="0.5"
     id="g115"
     transform="matrix(0.21837558,0,0,0.21837558,5.9000025,51.410132)">
    <path
       d="m 583.33,560.38 c -1.51,-4.53 -10.49,1.59 -10.49,1.59 l -0.74,1 -16,21.57 -39.04,-21.84 v -9.78 a 13.58,13.58 0 0 0 11.88,-15.8 14.73,14.73 0 0 0 5,-4 c 1.36,-1.45 2.82,-3.2 2.68,-5.13 a 3.56,3.56 0 0 0 -0.05,-0.92 4.92,4.92 0 0 0 -3.34,-3.38 31.8,31.8 0 0 0 -4.86,-1 c -3.87,-0.76 -7.37,-2.78 -11.15,-3.93 a 25.37,25.37 0 0 0 -5.27,-1 7.68,7.68 0 0 0 -3.79,0.42 13,13 0 0 0 -3.25,2.67 14.78,14.78 0 0 1 -4.26,2.77 c -2.34,1 -5,1.4 -7.08,2.81 a 4.17,4.17 0 0 0 -1.43,1.43 3.89,3.89 0 0 0 -0.38,2 10.19,10.19 0 0 0 0.14,1.84 20.57,20.57 0 0 0 2.11,7.52 21.26,21.26 0 0 0 4.26,4.78 l 3.55,3.25 a 8,8 0 0 0 2.44,1.81 1.87,1.87 0 0 1 0.55,-1.34 l -1.15,8 a 23.26,23.26 0 0 0 -6.6,-1 c -3,0 -6.07,0.51 -7.4,2.57 a 2.85,2.85 0 0 0 -0.2,0.39 c -4.16,4.94 -13.7,20.94 -8.09,59.79 -0.48,4.75 -0.77,7.76 -0.77,7.76 v 0.48 0.36 l 0.06,0.05 3.12,42.9 -6,42.28 h 1.34 v 4.7 h -1.51 v 7.55 c 0,0 21,-1.34 24.16,-6 2.65,-3.9 -10.54,-2.37 -15.1,-1.73 V 713 h 0.08 v -1.59 h 1.59 l 6,-28.69 c 6.21,-10.74 3,-37.58 3,-37.58 l 7.55,4.53 6,31.54 -4.4,46.79 h 1.34 v 3.27 h -1.76 v 7.55 c 0,0 21,-1.34 24.16,-6 2.64,-3.9 -10.53,-2.37 -15.1,-1.73 l -0.51,-3 h 0.92 l 6,-42.28 c 3,-11.45 -1.08,-45.07 -1.62,-49.37 l 7.49,-49.45 -0.11,-0.14 0.11,-0.7 30.2,10.57 c 0,0 3,3 6.12,-6 2.9,-8.39 10.86,-19.64 11.89,-21.07 l 0.11,-0.15 c 0,0 9.11,-4.59 7.6,-9.12 z"
       transform="translate(-137.5,-157.05)"
       fill="url(#019be7ee-c174-4831-83df-34be516e09e3)"
       id="path113"
       style="fill:url(#019be7ee-c174-4831-83df-34be516e09e3)" />
  </g>
  <polygon
     points="342.99,558.03 350.34,558.03 350.34,547.74 342.99,550.68 "
     fill="#fda57d"
     id="polygon117"
     transform="matrix(0.21837558,0,0,0.21837558,5.9000025,51.410132)" />
  <polygon
     points="370.93,574.21 378.28,572.74 376.81,563.92 370.93,565.39 "
     fill="#fda57d"
     id="polygon119"
     transform="matrix(0.21837558,0,0,0.21837558,5.9000025,51.410132)" />
  <path
     d="m 83.386207,138.9307 c 0,0 -3.83467,2.87164 -1.94354,14.11142 z"
     fill="#4d8af0"
     id="path121"
     style="stroke-width:0.218376" />
  <path
     d="m 83.386207,138.9307 c 0,0 -3.83467,2.87164 -1.94354,14.11142 z"
     opacity="0.05"
     id="path123"
     style="stroke-width:0.218376" />
  <polygon
     points="376.89,565.47 371.01,566.94 371.01,569.88 377.63,569.88 "
     opacity="0.05"
     id="polygon125"
     transform="matrix(0.21837558,0,0,0.21837558,5.9000025,51.410132)" />
  <polygon
     points="350.42,553.71 350.42,549.29 343.07,552.23 343.07,553.71 "
     opacity="0.05"
     id="polygon127"
     transform="matrix(0.21837558,0,0,0.21837558,5.9000025,51.410132)" />
  <polygon
     points="366.68,402.33 379.91,409.69 379.91,394.98 368.15,392.04 "
     fill="#fda57d"
     id="polygon129"
     transform="matrix(0.21837558,0,0,0.21837558,5.9000025,51.410132)" />
  <path
     d="m 80.514577,171.98839 1.28405,-8.99926 -0.66824,-9.30498 8.34851,2.24708 c 0,0 1.03509,7.99255 0.35595,10.59559 l -1.28405,8.99052 h -1.92608 l 0.96305,-9.95357 -1.28406,-6.70849 -1.60506,-0.96304 c 0,0 0.67696,5.70835 -0.64202,7.99256 l -1.28405,6.10142 z"
     fill="#eeeeee"
     id="path131"
     style="stroke-width:0.218376" />
  <path
     d="m 102.95704,139.87627 c -0.32101,-0.96305 -2.22963,0.33848 -2.22963,0.33848 l -0.15722,0.21836 0.75778,1.40853 0.024,-0.0328 c 0,0 1.92607,-0.9696 1.60505,-1.93263 z"
     fill="#fda57d"
     id="path133"
     style="stroke-width:0.218376" />
  <path
     d="m 86.260037,139.09228 c 0,0 -2.5681,-0.67696 -3.21012,0.32102 -0.64203,0.99798 -1.91953,14.44991 -1.91953,14.44991 0,0 3.81721,3.21012 8.34851,2.24709 l 1.59632,-10.59122 z"
     opacity="0.05"
     id="path135"
     style="stroke-width:0.218376" />
  <path
     d="m 97.176627,145.01464 -10.15009,-5.67777 a 5.0663137,5.0663137 0 0 0 -2.40214,-0.65511 c -0.64202,0 -1.29277,0.10919 -1.57229,0.54592 -0.64204,0.99799 -1.92609,14.44992 -1.92609,14.44992 0,0 3.81722,3.21011 8.3485,2.24708 l 1.60506,-10.59558 6.42899,2.25364 c 0,0 0.64203,0.64202 1.31024,-1.26659 0.61583,-1.78412 2.308233,-4.17533 2.526613,-4.48106 l -0.7796,-1.40634 z"
     fill="#4d8af0"
     id="path137"
     style="stroke-width:0.218376" />
  <path
     d="m 86.251297,137.52217 a 2.8847416,2.8847416 0 0 0 2.2733,1.10717 2.9174978,2.9174978 0 0 0 0.32101,-0.0174 v -0.62673 l -2.5681,-0.64202 z"
     opacity="0.05"
     id="path139"
     style="stroke-width:0.218376" />
  <circle
     cx="88.542038"
     cy="135.41702"
     fill="#fda57d"
     id="circle141"
     r="2.8891094"
     style="stroke-width:0.218376" />
  <path
     d="m 80.475267,172.98637 v 1.60507 c 0,0 4.45923,-0.28609 5.13837,-1.28405 0.67916,-0.99799 -3.53113,-0.32102 -3.53113,-0.32102 z"
     fill="#333333"
     id="path143"
     style="stroke-width:0.218376" />
  <path
     d="m 86.526447,176.21614 v 1.60507 c 0,0 4.45923,-0.28608 5.13839,-1.28405 0.67914,-0.99799 -3.53113,-0.32102 -3.53113,-0.32102 z"
     fill="#333333"
     id="path145"
     style="stroke-width:0.218376" />
  <path
     d="m 86.709887,136.74257 1.129,-1.61599 a 2.7602676,2.7602676 0 0 1 0.57216,-0.65512 0.93464752,0.93464752 0 0 1 0.82326,-0.18343 1.6749408,1.6749408 0 0 1 0.44986,0.27297 c 0.42147,0.3079 0.9412,0.53501 1.45437,0.43675 0.51319,-0.0982 0.94995,-0.51537 1.32337,-0.915 0.31008,-0.32974 0.6442,-0.73373 0.55903,-1.17922 a 1.0460191,1.0460191 0 0 0 -0.7097,-0.70536 6.7696431,6.7696431 0 0 0 -1.03293,-0.21837 c -0.82328,-0.16159 -1.56794,-0.59181 -2.37155,-0.8342 a 5.3938772,5.3938772 0 0 0 -1.12027,-0.21836 1.6334493,1.6334493 0 0 0 -0.80583,0.0894 2.7624512,2.7624512 0 0 0 -0.69005,0.56777 3.1424247,3.1424247 0 0 1 -0.90626,0.58962 c -0.4979,0.21837 -1.05256,0.29918 -1.5046,0.59616 a 0.88660485,0.88660485 0 0 0 -0.30354,0.30135 1.1617582,1.1617582 0 0 0 -0.0525,0.71629 4.3675118,4.3675118 0 0 0 0.44987,1.5985 4.5203748,4.5203748 0 0 0 0.90407,1.01545 l 0.7534,0.69224 a 1.6945947,1.6945947 0 0 0 0.51973,0.38434 c -0.0328,-0.2402 0.41709,-0.53283 0.55904,-0.73591 z"
     opacity="0.05"
     id="path147"
     style="stroke-width:0.218376" />
  <path
     d="m 86.709887,136.63556 1.129,-1.61597 a 2.7602676,2.7602676 0 0 1 0.57216,-0.65513 0.93464752,0.93464752 0 0 1 0.82326,-0.18344 1.6749408,1.6749408 0 0 1 0.44986,0.27297 c 0.42147,0.30791 0.9412,0.53502 1.45437,0.43675 0.51319,-0.0981 0.94995,-0.51536 1.32337,-0.91499 0.31008,-0.32975 0.6442,-0.73374 0.55903,-1.17922 a 1.0460191,1.0460191 0 0 0 -0.7097,-0.71845 6.7696431,6.7696431 0 0 0 -1.03293,-0.21838 c -0.82328,-0.16161 -1.56794,-0.59182 -2.37155,-0.8342 a 5.3938772,5.3938772 0 0 0 -1.12027,-0.21837 1.6334493,1.6334493 0 0 0 -0.80583,0.0894 2.7624512,2.7624512 0 0 0 -0.69005,0.56778 3.1424247,3.1424247 0 0 1 -0.90626,0.58962 c -0.4979,0.21837 -1.05256,0.29916 -1.5046,0.59617 a 0.88660485,0.88660485 0 0 0 -0.30354,0.30353 1.1617582,1.1617582 0 0 0 -0.0525,0.71627 4.3675118,4.3675118 0 0 0 0.44987,1.59851 4.5203748,4.5203748 0 0 0 0.90407,1.01545 l 0.7534,0.69226 a 1.6945947,1.6945947 0 0 0 0.51973,0.38434 c -0.0328,-0.2293 0.41709,-0.52193 0.55904,-0.72501 z"
     fill="#333333"
     id="path149"
     style="stroke-width:0.218376" />
  <path
     class="cls-8"
     d="m 112.65118,162.03357 -0.466,-1.335 -0.466,1.335 a 4.661,4.661 0 0 1 -2.589,2.636 v 0 a 4.66,4.66 0 0 1 2.589,2.636 l 0.466,1.335 0.466,-1.335 a 4.661,4.661 0 0 1 2.593,-2.635 v 0 a 4.661,4.661 0 0 1 -2.593,-2.637 z"
     id="path64-5"
     style="fill:#ffffff" />
  <path
     class="cls-8"
     d="m 30.824736,54.266417 -0.466,-1.335 -0.466,1.335 a 4.661,4.661 0 0 1 -2.589,2.636 v 0 a 4.66,4.66 0 0 1 2.589,2.636 l 0.466,1.335 0.466,-1.335 a 4.661,4.661 0 0 1 2.593,-2.635 v 0 a 4.661,4.661 0 0 1 -2.593,-2.637 z"
     id="path64-3"
     style="fill:#ffffff" />
</svg>
