<?xml version="1.0" encoding="UTF-8" standalone="no"?>
<svg
   xmlns:dc="http://purl.org/dc/elements/1.1/"
   xmlns:cc="http://creativecommons.org/ns#"
   xmlns:rdf="http://www.w3.org/1999/02/22-rdf-syntax-ns#"
   xmlns:svg="http://www.w3.org/2000/svg"
   xmlns="http://www.w3.org/2000/svg"
   xmlns:sodipodi="http://sodipodi.sourceforge.net/DTD/sodipodi-0.dtd"
   xmlns:inkscape="http://www.inkscape.org/namespaces/inkscape"
   id="Layer_1"
   data-name="Layer 1"
   viewBox="0 0 799.192 671.648"
   version="1.1"
   sodipodi:docname="details-lightbox-1.svg"
   inkscape:version="1.0 (b51213c273, 2020-08-10)">
  <metadata
     id="metadata79">
    <rdf:RDF>
      <cc:Work
         rdf:about="">
        <dc:format>image/svg+xml</dc:format>
        <dc:type
           rdf:resource="http://purl.org/dc/dcmitype/StillImage" />
      </cc:Work>
    </rdf:RDF>
  </metadata>
  <sodipodi:namedview
     pagecolor="#ffffff"
     bordercolor="#666666"
     borderopacity="1"
     objecttolerance="10"
     gridtolerance="10"
     guidetolerance="10"
     inkscape:pageopacity="0"
     inkscape:pageshadow="2"
     inkscape:window-width="1366"
     inkscape:window-height="704"
     id="namedview77"
     showgrid="false"
     inkscape:snap-bbox="true"
     inkscape:bbox-paths="true"
     inkscape:bbox-nodes="true"
     inkscape:snap-bbox-edge-midpoints="true"
     inkscape:snap-bbox-midpoints="true"
     inkscape:zoom="0.7176378"
     inkscape:cx="361.61761"
     inkscape:cy="335.82401"
     inkscape:window-x="0"
     inkscape:window-y="0"
     inkscape:window-maximized="1"
     inkscape:current-layer="g689"
     inkscape:document-rotation="0" />
  <defs
     id="defs4">
    <style
       id="style2">.cls-1{fill:#f6f9f8;}.cls-2{fill:#fff;}.cls-3{fill:#d1e8e6;}.cls-4{fill:#00bfc2;}.cls-5{fill:#0086f0;}.cls-6{fill:#324553;}.cls-7{fill:#969092;}.cls-8{fill:#b2ccc9;}</style>
  </defs>
  <title
     id="title6">details-lightbox-1</title>
  <g
     id="g689"
     transform="matrix(0.67866759,0,0,0.67866759,5.2851219,92.558468)">
    <path
       d="m 0,824.21475 h 1129.5731 c 0,0 99.0262,-170.08207 -17.532,-344.91532 -43.2517,-64.83511 -46.5409,-145.00483 -33.5854,-220.20983 35.0237,-203.287024 -105.14188,-383.19178 -257.21691,-330.394808 -2.89686,1.0143 -5.82389,2.041946 -8.77104,3.10963 C 583.2439,14.750124 395.57184,-68.609306 323.34152,-109.8753 a 207.72877,275.62263 0 0 0 -91.33146,-22.39467 C 150.94837,-127.46539 28.103536,-86.039248 142.2075,142.15152 303.07358,463.8447 0,824.21475 0,824.21475 Z"
       fill="#00b0ff"
       opacity="0.1"
       id="path478"
       style="stroke-width:1.15863" />
    <ellipse
       cx="270.5"
       cy="772.53058"
       rx="22.5"
       ry="29.450001"
       fill="#3f3d56"
       id="ellipse480" />
    <ellipse
       cx="270.5"
       cy="736.53058"
       rx="22.5"
       ry="29.450001"
       fill="#3f3d56"
       id="ellipse482" />
    <ellipse
       cx="270.5"
       cy="700.53058"
       rx="22.5"
       ry="29.450001"
       fill="#3f3d56"
       id="ellipse484" />
    <ellipse
       cx="270.5"
       cy="664.53058"
       rx="22.5"
       ry="29.450001"
       fill="#3f3d56"
       id="ellipse486" />
    <ellipse
       cx="270.5"
       cy="628.53058"
       rx="22.5"
       ry="29.450001"
       fill="#3f3d56"
       id="ellipse488" />
    <ellipse
       cx="270.5"
       cy="592.53058"
       rx="22.5"
       ry="29.450001"
       fill="#3f3d56"
       id="ellipse490" />
    <ellipse
       cx="270.5"
       cy="556.53058"
       rx="22.5"
       ry="29.450001"
       fill="#3f3d56"
       id="ellipse492" />
    <ellipse
       cx="457.5"
       cy="781.53058"
       rx="12.5"
       ry="16.360001"
       fill="#3f3d56"
       id="ellipse494" />
    <ellipse
       cx="457.5"
       cy="761.53058"
       rx="12.5"
       ry="16.360001"
       fill="#3f3d56"
       id="ellipse496" />
    <ellipse
       cx="457.5"
       cy="741.53058"
       rx="12.5"
       ry="16.360001"
       fill="#3f3d56"
       id="ellipse498" />
    <ellipse
       cx="457.5"
       cy="721.53058"
       rx="12.5"
       ry="16.360001"
       fill="#3f3d56"
       id="ellipse500" />
    <ellipse
       cx="457.5"
       cy="701.53058"
       rx="12.5"
       ry="16.360001"
       fill="#3f3d56"
       id="ellipse502" />
    <ellipse
       cx="457.5"
       cy="681.53058"
       rx="12.5"
       ry="16.360001"
       fill="#3f3d56"
       id="ellipse504" />
    <ellipse
       cx="457.5"
       cy="661.53058"
       rx="12.5"
       ry="16.360001"
       fill="#3f3d56"
       id="ellipse506" />
    <path
       d="m 354.73,310.1702 a 109.12,109.12 0 0 0 8.38,-12.33 l -59.11,-9.71 63.94,0.47 a 108,108 0 0 0 2.06,-85.39 l -85.79,44.5 79.1,-58.17999 a 107.78,107.78 0 1 0 -178,120.61999 107.91,107.91 0 0 0 -12.31,19.68 l 76.74,39.87 -81.81,-27.47 a 107.81,107.81 0 0 0 17.38,101.21 107.77,107.77 0 1 0 169.42,0 107.81,107.81 0 0 0 0,-133.27 z"
       fill="#00b0ff"
       id="path508" />
    <path
       d="m 162.24,376.8102 a 107.29,107.29 0 0 0 23.07,66.63 107.77,107.77 0 1 0 169.42,0 c 14.44,-18.34 -192.49,-78.73 -192.49,-66.63 z"
       opacity="0.1"
       id="path510" />
    <path
       d="m 401.28,480.1402 a 70.68,70.68 0 0 1 -5.58,-8.22 l 39.41,-6.48 -42.63,0.32 a 72,72 0 0 1 -1.37,-56.93 l 57.19,29.7 -52.74,-38.8 a 71.85,71.85 0 1 1 118.67,80.41 71.62,71.62 0 0 1 8.19,13.1 l -51.16,26.58 54.55,-18.29 a 71.85,71.85 0 0 1 -11.58,67.48 71.85,71.85 0 1 1 -113,0 71.89,71.89 0 0 1 0,-88.85 z"
       fill="#00b0ff"
       id="path512" />
    <path
       d="m 529.61,524.5302 a 71.57,71.57 0 0 1 -15.38,44.43 71.85,71.85 0 1 1 -113,0 c -9.58,-12.2 128.38,-52.43 128.38,-44.43 z"
       opacity="0.1"
       id="path514" />
    <path
       d="m 0,824.21475 c 0,0 120.52,-117 162.24,-77.64 41.72,39.36 217.87,49.83 234.1,47.51 16.23,-2.32 111.25,-6.95 164.56,-1.16 53.31,5.79 542.35,-16.22 562.05,31.29 z"
       fill="#3f3d56"
       id="path516" />
    <path
       d="m 800.08,236 h -54.2 a 9.23,9.23 0 0 0 2,-5.8 9.33,9.33 0 0 0 -0.68,-3.47 h 25 a 9.27,9.27 0 0 0 0,-18.54 H 622.77 a 9.3,9.3 0 0 0 -9.27,9.27 9.1,9.1 0 0 0 0.69,3.47 h -25 a 9.28,9.28 0 0 0 0,18.55 h 54.2 a 9.2,9.2 0 0 0 -2,5.79 9.3,9.3 0 0 0 9.27,9.27 h 149.42 a 9.27,9.27 0 0 0 0,-18.54 z"
       transform="translate(-19,-91.56)"
       fill="#00b0ff"
       opacity="0.1"
       id="path518" />
    <path
       d="m 1015.1896,331.50555 h -59.21992 a 10.084873,10.084873 0 0 0 2.23987,-6.33719 9.9756114,9.9756114 0 0 0 -0.74299,-3.79139 h 27.31548 a 10.128578,10.128578 0 0 0 0,-20.25715 H 821.46828 a 10.161357,10.161357 0 0 0 -10.12858,10.12858 9.9319066,9.9319066 0 0 0 0.74298,3.79138 h -27.31547 a 10.139504,10.139504 0 0 0 0,20.26809 h 59.21995 a 10.052095,10.052095 0 0 0 -2.18524,6.32626 10.161357,10.161357 0 0 0 10.12858,10.12858 h 163.2591 a 10.12858,10.12858 0 1 0 0,-20.25716 z"
       fill="#00b0ff"
       opacity="0.1"
       id="path520"
       style="stroke-width:1.09262" />
    <path
       d="m 536.92,327.3702 h -31.75 a 5.39,5.39 0 0 0 1.2,-3.39 5.53,5.53 0 0 0 -0.4,-2 h 14.66 a 5.43,5.43 0 0 0 0,-10.86 H 433 a 5.45,5.45 0 0 0 -5.43,5.43 5.34,5.34 0 0 0 0.41,2 h -14.62 a 5.43,5.43 0 1 0 0,10.86 h 31.75 a 5.39,5.39 0 0 0 -1.2,3.39 5.45,5.45 0 0 0 5.43,5.44 h 87.58 a 5.44,5.44 0 0 0 0,-10.87 z"
       fill="#00b0ff"
       opacity="0.1"
       id="path522" />
    <path
       d="m 647.92761,753.60612 a 25.98248,25.98248 0 0 1 -1.90116,6.55571 46.982616,46.982616 0 0 0 11.59269,2.67692 1.092619,1.092619 0 0 0 0.74298,-0.10926 c 0.295,-0.22945 0.2513,-0.68835 0.20759,-1.09262 a 14.520906,14.520906 0 0 1 1.20189,-6.29349 q 3.27785,-9.12336 6.4683,-18.26859 c -3.78046,-1.71541 -11.60361,-0.67742 -14.79406,2.18524 -2.93915,2.64414 -2.80803,10.65304 -3.51823,14.34609 z"
       fill="#a1616a"
       id="path524"
       style="stroke-width:1.09262" />
    <path
       d="m 702.14336,763.80026 a 2.0978285,2.0978285 0 0 0 -0.19667,0.80853 c 0,0.97243 1.28929,1.31115 2.26172,1.39856 a 61.918718,61.918718 0 0 1 13.78885,2.87358 c 0.54631,-1.61707 -0.21852,-3.35434 -0.24038,-5.0479 0,-2.36005 1.38763,-4.45788 2.2508,-6.65405 1.54059,-3.87879 1.4204,-8.18371 1.27836,-12.35752 -3.73675,0.25131 -12.65252,-1.47503 -14.73943,2.39284 -1.15817,2.18524 -1.09262,5.46309 -1.61707,7.86686 a 60.858878,60.858878 0 0 1 -2.78618,8.7191 z"
       fill="#a1616a"
       id="path526"
       style="stroke-width:1.09262" />
    <path
       d="m 679.91949,595.87564 -9.83357,0.57909 a 2.818957,2.818957 0 0 0 -1.7919,0.52446 2.6878427,2.6878427 0 0 0 -0.66649,1.71541 c -1.31115,9.83357 0.99428,19.87474 -0.22945,29.70831 -0.49168,3.86787 -1.51874,7.64833 -2.31636,11.45065 -1.34392,6.34811 -2.07597,12.80549 -2.80803,19.25194 a 43.912357,43.912357 0 0 0 -0.37149,9.64783 c 0.28408,2.70969 1.09262,5.35383 1.19096,8.07445 a 28.080308,28.080308 0 0 1 -1.66078,9.44023 102.70618,102.70618 0 0 1 -6.11867,15.15463 c -2.10876,4.22843 -4.52344,8.34761 -5.80181,12.8929 -2.03227,7.23314 -1.09262,15.11092 -3.5073,22.22387 -0.60094,1.74819 -1.40948,3.55101 -1.09262,5.36476 0.42612,2.34913 2.70969,4.02084 5.05882,4.46881 a 17.962656,17.962656 0 0 0 7.0911,-0.53538 c 3.83509,-0.81946 7.91056,-1.77004 10.60933,-4.61085 a 19.426766,19.426766 0 0 0 3.54009,-6.35905 c 1.78096,-4.37047 3.55101,-8.8065 5.17901,-13.26439 a 50.391588,50.391588 0 0 1 2.51302,-6.1733 c 0.89595,-1.70448 2.01042,-3.27785 2.961,-4.98234 a 50.631964,50.631964 0 0 0 3.80232,-9.178 c 7.01461,-21.52459 9.15614,-44.79738 19.75455,-64.79231 0.5026,-0.95057 0.56816,-2.18523 1.09262,-3.08118 a 31.838917,31.838917 0 0 1 1.4641,10.06302 211.52011,211.52011 0 0 1 -0.55723,23.24001 c -0.43705,5.63791 -1.09262,11.2649 -1.22373,16.92466 0,2.57858 0,5.16809 0.0546,7.7576 v 2.10875 c 0.0874,3.68213 0.17482,7.36426 0.53538,11.02453 1.54059,15.12185 -3.22323,29.8285 -1.50781,44.92849 a 2.6113594,2.6113594 0 0 0 0.5026,1.48596 c 0.73206,0.78669 2.03227,0.36057 3.02656,-0.0656 a 32.516341,32.516341 0 0 1 10.33617,-2.57858 6.9709091,6.9709091 0 0 0 3.13582,-0.69928 c 1.57337,-0.93965 2.02134,-2.98285 2.30542,-4.7966 q 3.57287,-22.05998 7.13481,-44.11995 a 105.48144,105.48144 0 0 0 1.35484,-10.63119 c 0.27316,-4.6327 -0.0655,-9.28726 0.38242,-13.89811 0.62279,-6.55571 3.27786,-12.78364 5.26642,-19.01157 1.02706,-3.27786 2.06505,-6.50108 3.00471,-9.77894 0.93965,-3.27786 1.80282,-6.6759 2.56765,-10.04117 1.31114,-5.85644 2.3382,-11.89862 1.43133,-17.83154 -0.90687,-5.93292 -4.03176,-11.78936 -9.29819,-14.65202 -3.85694,-2.10875 -8.38038,-2.42561 -12.73993,-2.90637 -12.44493,-1.36577 -24.84616,-4.37047 -37.31294,-3.27785 -2.16339,0.19667 -4.22844,-0.89595 -6.45738,-0.76484 z"
       fill="#3f3d56"
       id="path528"
       style="stroke-width:1.09262" />
    <path
       d="m 652.34179,796.42586 a 14.018302,14.018302 0 0 0 1.55151,-3.27786 l 4.03177,-10.92619 a 94.970442,94.970442 0 0 0 3.27786,-9.97561 46.731314,46.731314 0 0 0 1.33299,-12.36845 46.05389,46.05389 0 0 1 -12.139,-1.70448 18.760268,18.760268 0 0 0 -4.61085,-0.97243 8.0198234,8.0198234 0 0 0 -7.77945,8.48965 12.226406,12.226406 0 0 1 0.17482,1.98856 6.217002,6.217002 0 0 1 -0.56816,1.91209 l -4.30492,10.48914 a 23.021482,23.021482 0 0 0 -2.18523,8.08538 c -0.30594,9.81172 15.02351,17.1869 21.21866,8.2602 z"
       fill="#3f3d56"
       id="path530"
       style="stroke-width:1.09262" />
    <path
       d="m 693.86131,795.47528 a 18.760268,18.760268 0 0 0 0,4.94956 c 0.85224,4.62178 5.32105,8.12909 10.00839,8.45687 a 14.346087,14.346087 0 0 0 12.13899,-5.97662 12.892904,12.892904 0 0 0 2.02135,-3.8788 20.136968,20.136968 0 0 0 0.67742,-4.11917 l 1.73727,-18.38878 c 0.2513,-2.57858 1.30021,-6.30441 0,-8.74095 -1.09262,-2.06505 -3.74769,-2.74248 -5.79088,-3.51823 a 22.781106,22.781106 0 0 0 -10.72952,-1.60615 c -6.36997,0.53538 -6.30441,7.03646 -7.26592,12.2264 q -1.8793,10.24877 -2.7971,20.59587 z"
       fill="#3f3d56"
       id="path532"
       style="stroke-width:1.09262" />
    <path
       d="m 695.75154,422.00718 c -2.93915,4.11918 -7.22221,7.14573 -10.10673,11.30861 a 21.251439,21.251439 0 0 0 -3.72583,12.94754 c 0.0983,2.36005 0.59002,4.77474 0,7.05831 a 12.554192,12.554192 0 0 1 -2.81896,4.67641 39.268726,39.268726 0 0 1 -17.95173,11.9314 c -0.84131,0.26223 -1.89023,0.83039 -1.68263,1.68264 a 1.7372642,1.7372642 0 0 0 0.77576,0.88502 l 14.20405,10.17228 c 8.33668,5.97663 16.71707,12.01881 25.93877,16.48762 a 92.151485,92.151485 0 0 0 52.99202,8.33668 27.632334,27.632334 0 0 1 -4.20658,-12.01881 c -0.54631,-5.1353 0.37149,-10.31432 0.27316,-15.48241 a 40.011707,40.011707 0 0 0 -3.27786,-15.29666 c -1.22373,-2.80803 -2.77525,-5.4631 -3.71491,-8.38039 a 43.355121,43.355121 0 0 1 -1.57337,-10.92619 l -0.73205,-12.22641 a 24.671337,24.671337 0 0 0 -1.01614,-6.69775 16.596882,16.596882 0 0 0 -2.60043,-4.61085 c -5.20087,-6.79609 -13.11143,-9.70246 -21.39348,-10.41266 -3.61657,-0.30594 -8.04168,-0.60094 -11.37416,0.97243 -3.98806,1.95579 -5.60514,6.24978 -8.0089,9.59319 z"
       fill="#3f3d56"
       id="path534"
       style="stroke-width:1.09262" />
    <path
       d="m 694.39669,466.10529 a 8.1181591,8.1181591 0 0 1 -5.12438,4.76381 24.168732,24.168732 0 0 1 -7.14573,1.09262 l -5.21179,0.24038 a 2.2726475,2.2726475 0 0 0 -1.60615,0.48075 1.8793047,1.8793047 0 0 0 -0.4589,1.1691 c -0.32779,2.77526 1.28929,5.36476 2.90636,7.64834 5.17902,7.25499 11.38509,14.14941 19.4814,17.85339 a 32.133924,32.133924 0 0 0 37.03978,-7.47351 3.277857,3.277857 0 0 0 1.02707,-1.82468 3.0702594,3.0702594 0 0 0 -1.57338,-2.55672 c -1.72633,-1.27837 -3.7586,-2.10876 -5.46309,-3.3762 a 16.389285,16.389285 0 0 1 -5.93292,-8.9704 26.987689,26.987689 0 0 1 -0.49168,-10.87156 c -6.47923,-1.84652 -13.53755,-0.38241 -20.02771,-2.18524 -1.51874,-0.41519 -4.37047,-2.01041 -5.9657,-1.09261 -1.59522,0.9178 -0.95057,3.55101 -1.45318,5.10253 z"
       fill="#a1616a"
       id="path536"
       style="stroke-width:1.09262" />
    <path
       d="m 694.39669,466.10529 a 8.1181591,8.1181591 0 0 1 -5.12438,4.76381 24.168732,24.168732 0 0 1 -7.14573,1.09262 l -5.21179,0.24038 a 2.2726475,2.2726475 0 0 0 -1.60615,0.48075 1.8793047,1.8793047 0 0 0 -0.4589,1.1691 c -0.32779,2.77526 1.28929,5.36476 2.90636,7.64834 5.17902,7.25499 11.38509,14.14941 19.4814,17.85339 a 32.133924,32.133924 0 0 0 37.03978,-7.47351 3.277857,3.277857 0 0 0 1.02707,-1.82468 3.0702594,3.0702594 0 0 0 -1.57338,-2.55672 c -1.72633,-1.27837 -3.7586,-2.10876 -5.46309,-3.3762 a 16.389285,16.389285 0 0 1 -5.93292,-8.9704 26.987689,26.987689 0 0 1 -0.49168,-10.87156 c -6.47923,-1.84652 -13.53755,-0.38241 -20.02771,-2.18524 -1.51874,-0.41519 -4.37047,-2.01041 -5.9657,-1.09261 -1.59522,0.9178 -0.95057,3.55101 -1.45318,5.10253 z"
       opacity="0.1"
       id="path538"
       style="stroke-width:1.09262" />
    <circle
       cx="710.86249"
       cy="455.103"
       r="21.819601"
       fill="#a1616a"
       id="circle540"
       style="stroke-width:1.09262" />
    <path
       d="m 726.73821,477.33741 a 71.588396,71.588396 0 0 1 -12.52141,4.06454 24.103175,24.103175 0 0 1 -13.00217,-0.7102 45.267205,45.267205 0 0 1 -8.0526,-4.589 c -4.52344,-2.89544 -9.46208,-5.4631 -14.81591,-5.98755 -2.5021,-0.26223 -5.23365,0 -7.21129,1.55152 a 9.8335709,9.8335709 0 0 0 -3.17952,6.55571 c -0.72113,5.20087 0.51353,10.44544 1.61708,15.58075 4.18473,19.50325 6.55571,39.90244 1.86838,59.30736 -2.4584,10.30339 0.19667,21.02199 0.55723,31.60946 a 37.826469,37.826469 0 0 0 1.43133,10.7623 c 1.14725,3.44175 3.4636,6.66498 6.80702,8.07445 3.11396,1.31115 6.64312,0.90688 10.00839,0.63372 4.00991,-0.31686 8.19464,-0.37149 11.83306,1.31115 2.57858,1.20188 4.99327,3.27785 7.81223,3.02655 1.44226,-0.13111 2.7534,-0.87409 4.18473,-1.09262 2.87359,-0.48075 5.62699,1.09262 8.23835,2.38191 a 50.981602,50.981602 0 0 0 20.75976,5.2555 c 3.68212,-8.66447 1.78097,-18.41063 2.18523,-27.81808 0.1639,-3.51823 0.68835,-7.01461 0.89595,-10.53285 a 117.80618,117.80618 0 0 0 -0.16389,-12.72901 l -1.333,-28.62662 c -0.38241,-7.79037 3.59472,-15.41685 3.27786,-23.1963 a 70.211696,70.211696 0 0 0 -1.49689,-10.77322 c -0.24037,-1.20188 -0.49168,-2.39284 -0.83039,-3.56194 -2.40376,-8.20557 -9.32004,-14.20405 -15.93038,-19.59066 a 3.2013736,3.2013736 0 0 0 -2.93915,-0.90687 z"
       fill="#00b0ff"
       id="path542"
       style="stroke-width:1.09262" />
    <path
       d="m 690.26659,605.09735 c 0.0874,7.64833 -2.66599,15.04536 -5.36476,22.22387 -0.83039,2.18524 -1.84652,4.61085 -3.96621,5.62699 -2.11968,1.01613 -4.49066,0.36056 -6.55571,-0.44798 a 44.109029,44.109029 0 0 1 -5.60513,-2.58951 c -1.90116,-1.09261 -4.04269,-2.26172 -6.08589,-1.56244 -2.5021,0.85224 -3.27786,3.96621 -3.61657,6.55571 a 69.326675,69.326675 0 0 1 -10.21599,-0.62279 1.9230094,1.9230094 0 0 1 -0.89595,-0.28408 1.8902308,1.8902308 0 0 1 -0.56816,-1.22373 c -0.34964,-1.82468 -0.7102,-3.63842 -1.09262,-5.4631 -0.10926,-0.56816 -0.52445,-1.32207 -1.09262,-1.09262 0.4589,-7.08017 -1.01613,-14.12756 -1.55152,-21.19681 a 56.215247,56.215247 0 0 1 0.10927,-10.76229 104.2577,104.2577 0 0 1 2.05412,-10.63119 c 1.68263,-7.49536 4.91679,-15.11092 5.10253,-22.71554 a 25.66562,25.66562 0 0 0 -0.29501,-4.56715 q -2.31635,-14.30238 -4.61085,-28.62662 c -0.39334,-2.38191 -0.77576,-4.78567 -1.33299,-7.1348 -0.4152,-1.74819 -0.80854,-3.44175 -1.25652,-5.12438 -0.27315,-1.02707 -0.56816,-2.0432 -0.90687,-3.07026 q 4.37048,-12.01881 8.74095,-24.03762 a 44.174586,44.174586 0 0 1 2.40376,-5.7581 22.529804,22.529804 0 0 1 9.77894,-9.53857 8.8174352,8.8174352 0 0 0 3.27786,-2.18524 c 0.42612,-0.55723 0.68835,-1.23465 1.09262,-1.81374 1.54059,-2.18524 4.69826,-2.36006 7.33147,-1.87931 2.41469,0.42612 4.91679,1.34392 6.3809,3.27786 a 12.860125,12.860125 0 0 1 1.39855,2.84081 q 2.62229,6.35904 5.26642,12.70716 c 1.49689,0.72113 2.18524,2.67691 2.18524,4.37047 0,3.14675 -0.44797,6.28256 -0.31686,9.42931 0,0.22945 0,0.44797 0.0656,0.67742 0.39334,2.82988 2.39284,5.21179 3.07026,8.0526 2.60043,10.87156 -1.19095,22.05998 -3.4199,33.05173 -0.0874,0.43704 -0.17482,0.86316 -0.2513,1.30021 a 99.297214,99.297214 0 0 0 -1.74819,19.37214 55.37393,55.37393 0 0 0 0.56816,8.06353 c 0.36057,2.34913 0.93965,4.66548 1.20188,7.03646 a 65.098239,65.098239 0 0 1 0,9.89913 c -0.30593,5.91107 0.65557,11.86584 0.72113,17.84247 z"
       fill="#454b69"
       id="path544"
       style="stroke-width:1.09262" />
    <path
       d="m 699.26977,511.44897 a 9.4074495,9.4074495 0 0 1 1.24559,4.37048 2.9063665,2.9063665 0 0 1 -0.65557,1.81375 2.7315475,2.7315475 0 0 1 -2.5021,0.68835 6.8725734,6.8725734 0 0 1 -2.43654,-1.09262 5.6488402,5.6488402 0 0 1 -2.32728,-2.33821 6.0858878,6.0858878 0 0 1 -0.34964,-1.46411 l -0.57909,-3.69305 a 4.7091878,4.7091878 0 0 1 0,-2.18524 c 0.49168,-1.51874 2.69877,-4.20658 4.37048,-2.89544 1.67171,1.31115 2.41469,5.0479 3.23415,6.79609 z"
       fill="#454b69"
       id="path546"
       style="stroke-width:1.09262" />
    <path
       d="m 763.23169,517.52394 c -0.64465,-1.68264 -2.56766,-2.39284 -4.14103,-3.27786 -3.27786,-1.82468 -5.5505,-5.01512 -7.27684,-8.33668 -1.72634,-3.32157 -3.01563,-6.86165 -4.88401,-10.0958 a 3.9334284,3.9334284 0 0 0 -1.24558,-1.48597 1.5078142,1.5078142 0 0 0 -1.81375,0.10927 1.9667142,1.9667142 0 0 0 -0.40427,1.03798 c -0.39334,2.41469 0.29501,4.85123 0.6665,7.26592 a 28.320684,28.320684 0 0 1 -6.92721,22.945 c -2.26172,2.5021 -5.06975,4.69826 -6.28256,7.845 a 18.476187,18.476187 0 0 0 -0.65557,7.64834 l 0.75391,13.94181 a 131.76985,131.76985 0 0 1 -4.75289,42.05491 c -2.18524,7.86686 -5.87829,15.8102 -4.37048,23.83002 0.56816,3.07026 1.90116,6.11867 1.35485,9.19985 a 3.1358165,3.1358165 0 0 0 0,1.7919 2.6113594,2.6113594 0 0 0 1.09262,1.01613 l 7.26591,4.74197 6.55572,-19.41584 a 35.90346,35.90346 0 0 0 1.45318,-5.08068 38.831679,38.831679 0 0 0 0.42612,-5.9657 251.89238,251.89238 0 0 1 6.74146,-51.83384 39.782257,39.782257 0 0 1 2.18524,-7.16758 c 1.89023,-4.25029 5.06975,-7.76852 8.20557,-11.2212 0.0765,-1.60615 -0.13112,-3.2123 0,-4.82938 a 30.910191,30.910191 0 0 1 1.19095,-8.32575 c 0.85225,-2.65507 2.31635,-5.2118 4.86216,-6.39182 z"
       fill="#454b69"
       id="path548"
       style="stroke-width:1.09262" />
    <path
       d="m 752.20716,535.66141 a 98.652568,98.652568 0 0 0 0.2076,13.79978 l 1.09262,18.29044 a 26.299339,26.299339 0 0 0 1.09262,7.22221 c 0.87409,2.49117 2.49117,4.67641 3.33248,7.18943 0.28409,0.85225 0.48076,1.7482 0.76484,2.61136 0.36056,1.09262 0.85224,2.0432 1.31114,3.05934 2.95007,6.6759 3.75861,14.08386 3.96621,21.37162 0.2076,7.28777 -0.16389,14.59739 0.57909,21.85238 a 13.187911,13.187911 0 0 1 -5.80181,0.28409 8.1181591,8.1181591 0 0 0 -2.18524,-0.29501 6.8944258,6.8944258 0 0 0 -1.8356,0.52446 18.913235,18.913235 0 0 1 -15.87575,-1.42041 31.685951,31.685951 0 0 1 -4.05362,-2.97192 12.423078,12.423078 0 0 1 -2.77525,-2.93915 10.92619,10.92619 0 0 1 -1.25651,-5.31013 c -0.25131,-7.41888 2.18523,-14.63016 3.83509,-21.85238 a 203.11787,203.11787 0 0 0 3.27786,-21.18588 c 1.2128,-10.41266 0.88502,-21.12032 3.27785,-31.33631 a 8.63169,8.63169 0 0 1 1.74819,-4.05362 8.7409519,8.7409519 0 0 1 2.81896,-1.81374 c 2.13061,-1.03799 4.30492,-2.02135 6.47923,-3.02656 z"
       fill="#454b69"
       id="path550"
       style="stroke-width:1.09262" />
    <path
       d="m 763.23169,517.52394 c -0.64465,-1.68264 -2.56766,-2.39284 -4.14103,-3.27786 -3.27786,-1.82468 -5.5505,-5.01512 -7.27684,-8.33668 -1.72634,-3.32157 -3.01563,-6.86165 -4.88401,-10.0958 a 3.9334284,3.9334284 0 0 0 -1.24558,-1.48597 1.5078142,1.5078142 0 0 0 -1.81375,0.10927 1.9667142,1.9667142 0 0 0 -0.40427,1.03798 c -0.39334,2.41469 0.29501,4.85123 0.6665,7.26592 a 28.320684,28.320684 0 0 1 -6.92721,22.945 c -2.26172,2.5021 -5.06975,4.69826 -6.28256,7.845 a 18.476187,18.476187 0 0 0 -0.65557,7.64834 l 0.75391,13.94181 a 131.76985,131.76985 0 0 1 -4.75289,42.05491 c -2.18524,7.86686 -5.87829,15.8102 -4.37048,23.83002 0.56816,3.07026 1.90116,6.11867 1.35485,9.19985 a 3.1358165,3.1358165 0 0 0 0,1.7919 2.6113594,2.6113594 0 0 0 1.09262,1.01613 l 7.26591,4.74197 6.55572,-19.41584 a 35.90346,35.90346 0 0 0 1.45318,-5.08068 38.831679,38.831679 0 0 0 0.42612,-5.9657 251.89238,251.89238 0 0 1 6.74146,-51.83384 39.782257,39.782257 0 0 1 2.18524,-7.16758 c 1.89023,-4.25029 5.06975,-7.76852 8.20557,-11.2212 0.0765,-1.60615 -0.13112,-3.2123 0,-4.82938 a 30.910191,30.910191 0 0 1 1.19095,-8.32575 c 0.85225,-2.65507 2.31635,-5.2118 4.86216,-6.39182 z"
       opacity="0.1"
       id="path552"
       style="stroke-width:1.09262" />
    <path
       d="m 755.13538,632.30356 a 3.9006498,3.9006498 0 0 1 -1.4204,2.05412 c -0.73206,0.4152 -1.92301,0.0656 -1.98857,-0.77576 -1.22373,-0.16389 -2.18524,1.27837 -3.36527,1.3767 -1.18003,0.0983 -2.27264,-1.09261 -3.43082,-0.83039 -0.74298,0.19668 -1.44226,0.98336 -2.11968,0.63372 -0.28408,-0.14204 -0.4589,-0.44797 -0.75391,-0.55723 -0.46983,-0.15297 -0.9178,0.28408 -1.39855,0.39334 -1.01614,0.22945 -1.75912,-1.01614 -1.7919,-2.05412 -0.0328,-1.03799 0.27316,-2.18524 -0.20759,-3.08119 a 0.65557139,0.65557139 0 0 0 -0.31686,-0.34964 c -0.32779,-0.15296 -0.68835,0.15297 -0.90688,0.44798 -0.80854,1.09262 -1.03799,2.61136 -1.85745,3.74768 -0.81946,1.13632 -2.77525,1.67171 -3.51823,0.49168 a 2.7861784,2.7861784 0 0 1 -0.15297,-1.97764 c 0.49168,-2.79711 1.5843,-5.80181 4.09732,-7.11295 2.18524,-1.09262 4.80753,-0.67743 7.21129,-0.17482 q 5.01512,1.09262 10.01931,2.26172 c 0.88502,0.2076 3.00471,0.31686 3.38712,1.34392 0.38242,1.02706 -1.13632,3.28879 -1.48596,4.16288 z"
       fill="#a1616a"
       id="path554"
       style="stroke-width:1.09262" />
    <path
       d="m 715.77924,439.69668 c 1.09262,5.88922 4.45789,11.07916 7.15666,16.44392 2.69877,5.36476 4.85123,11.46157 3.38712,17.27431 a 60.094044,60.094044 0 0 1 -2.18524,5.88921 55.636159,55.636159 0 0 0 -2.2508,10.46729 c -0.72112,4.82938 -1.44225,9.73524 -0.86316,14.58647 0.57908,4.85122 2.64413,9.72431 6.55571,12.67438 l -0.30593,-2.18524 a 24.28892,24.28892 0 0 1 4.62177,3.17952 29.347746,29.347746 0 0 0 3.27786,-8.90484 l 7.41888,5.7581 c 3.27786,2.51302 6.94906,5.15716 11.0136,4.65455 l -3.27785,-7.54999 c -0.90688,-2.09783 -1.81375,-4.18473 -2.88452,-6.20608 a 19.525101,19.525101 0 0 1 -1.77004,-3.78046 17.055782,17.055782 0 0 1 -0.48075,-3.49638 243.79607,243.79607 0 0 0 -10.72952,-56.81619 47.365033,47.365033 0 0 0 -5.16809,-12.01881 15.05629,15.05629 0 0 0 -4.30492,-4.44696 c -2.72062,-1.73726 -6.06403,-2.10875 -9.27633,-2.43654 a 28.615691,28.615691 0 0 0 -6.76331,-0.15296 20.759761,20.759761 0 0 0 -6.55572,2.25079 34.963808,34.963808 0 0 0 -15.12185,15.00166 29.719236,29.719236 0 0 0 -3.41989,15.17648 c 0.42612,5.57235 5.73625,3.03748 9.32004,1.64985 8.87206,-3.4636 17.39449,-8.83929 22.60628,-17.01208 z"
       fill="#3f3d56"
       id="path556"
       style="stroke-width:1.09262" />
    <path
       d="m 699.26977,511.44897 a 9.4074495,9.4074495 0 0 1 1.24559,4.37048 2.9063665,2.9063665 0 0 1 -0.65557,1.81375 2.7315475,2.7315475 0 0 1 -2.5021,0.68835 6.8725734,6.8725734 0 0 1 -2.43654,-1.09262 5.6488402,5.6488402 0 0 1 -2.32728,-2.33821 6.0858878,6.0858878 0 0 1 -0.34964,-1.46411 l -0.57909,-3.69305 a 4.7091878,4.7091878 0 0 1 0,-2.18524 c 0.49168,-1.51874 2.69877,-4.20658 4.37048,-2.89544 1.67171,1.31115 2.41469,5.0479 3.23415,6.79609 z"
       opacity="0.1"
       id="path558"
       style="stroke-width:1.09262" />
    <polygon
       points="742.71,407.39 738.96,435.48 755.44,434.48 760.8,407.39 "
       fill="#454b69"
       id="polygon560"
       transform="matrix(1.092619,0,0,1.092619,-105.40041,28.118072)" />
    <circle
       cx="714.95978"
       cy="482.37476"
       r="1.3657737"
       fill="#ffffff"
       id="circle562"
       style="stroke-width:1.09262" />
    <g
       opacity="0.1"
       id="g568"
       transform="matrix(1.092619,0,0,1.092619,-105.40041,28.118072)">
      <path
         d="m 780.65,495.73 c 0.17,-0.49 0.32,-1 0.45,-1.48 1.33,-5.33 -0.64,-10.91 -3.11,-15.82 -2.47,-4.91 -5.51,-9.65 -6.54,-15.05 -4.77,7.48 -12.55,12.4 -20.68,15.56 -3.28,1.27 -8.15,3.58 -8.54,-1.51 a 20.47,20.47 0 0 1 0,-3.41 23.69,23.69 0 0 0 -0.9,8.15 c 0.39,5.1 5.25,2.78 8.53,1.51 8.14,-3.15 15.91,-8.07 20.68,-15.55 1,5.39 4.08,10.14 6.55,15 2,3.96 3.65,8.3 3.56,12.6 z"
         transform="translate(-19,-91.56)"
         id="path564" />
      <path
         d="m 796,532.2 q -3.4,-2.62 -6.79,-5.27 a 26.78,26.78 0 0 1 -3,8.16 22,22 0 0 0 -4.23,-2.92 l 0.28,2 c -3.56,-2.7 -5.45,-7.16 -6,-11.6 -0.55,-4.44 0.12,-8.93 0.78,-13.35 0.07,-0.48 0.15,-1 0.22,-1.44 -0.47,2 -0.78,4.11 -1.09,6.18 -0.66,4.43 -1.32,8.91 -0.79,13.35 0.53,4.44 2.42,8.9 6,11.6 l -0.28,-2 a 22.75,22.75 0 0 1 4.23,2.92 27,27 0 0 0 3,-8.15 q 3.4,2.63 6.79,5.27 c 3,2.29 6.36,4.72 10.08,4.26 l -2.16,-5 c -2.55,-0.63 -4.91,-2.35 -7.04,-4.01 z"
         transform="translate(-19,-91.56)"
         id="path566" />
    </g>
    <path
       d="m 696.22136,489.57474 a 25.774882,25.774882 0 0 1 6.10774,-5.83458 1.8355999,1.8355999 0 0 1 1.25652,-0.34964 c 0.34963,0.0765 0.64464,0.33871 1.00521,0.40427 a 1.9994927,1.9994927 0 0 0 1.18002,-0.28408 l 5.0479,-2.42562 a 5.353833,5.353833 0 0 1 2.41469,-0.69927 1.7700428,1.7700428 0 0 1 1.75912,1.51874 c 0,0.93965 -0.92873,1.57337 -1.75912,2.04319 a 47.212066,47.212066 0 0 0 -7.08017,4.93864 c -1.09262,0.97243 -2.3382,2.57858 -1.48596,3.82417 a 3.277857,3.277857 0 0 0 2.77525,0.92872 22.278501,22.278501 0 0 0 5.4631,-0.41519 c 1.44225,-0.36057 2.7971,-1.00521 4.25028,-1.34392 a 20.901801,20.901801 0 0 1 4.05362,-0.40427 3.277857,3.277857 0 0 1 2.28357,0.49168 c 0.60094,0.51353 0.54631,1.74819 -0.22945,1.90115 1.09262,1.45319 0.13112,3.59472 -1.30021,4.68734 -1.43133,1.09262 -3.27786,1.54059 -4.77475,2.46932 1.74819,-0.62279 3.81324,-1.22373 5.36476,-0.19667 a 1.092619,1.092619 0 0 1 0.49168,0.61186 c 0.0983,0.51353 -0.44797,0.90688 -0.92873,1.09262 -7.16758,3.34342 -15.65723,2.18524 -23.16352,4.66549 a 24.638558,24.638558 0 0 0 -8.60984,4.97141 c 1.16911,-1.09262 -6.03125,-8.74095 -5.40846,-10.92619 0.50261,-1.79189 4.11917,-4.07547 5.4631,-5.46309 q 3.01562,-2.93915 5.82365,-6.20608 z"
       fill="#a1616a"
       id="path570"
       style="stroke-width:1.09262" />
    <path
       d="m 695.94821,524.3091 a 5.8345854,5.8345854 0 0 0 0.38242,2.92822 c 0.59001,2.46932 -0.27316,5.05882 -1.46411,7.30962 a 31.685951,31.685951 0 0 1 -5.11346,6.98183 67.414592,67.414592 0 0 1 -7.71389,6.8398 166.07809,166.07809 0 0 1 -16.82633,11.60361 14.007375,14.007375 0 0 1 -4.86216,2.13061 14.564611,14.564611 0 0 1 -4.07547,-0.0656 23.524087,23.524087 0 0 1 -5.3429,-1.09262 25.66562,25.66562 0 0 0 -0.29501,-4.56714 q -2.31635,-14.30239 -4.61085,-28.62662 c -0.39334,-2.38191 -0.77576,-4.78567 -1.333,-7.1348 -0.41519,-1.74819 -0.80854,-3.44175 -1.25651,-5.12439 0,0 0,-0.0874 0,-0.12018 1.09262,-2.7534 4.29399,-4.50159 4.61085,-7.42981 4.62178,-0.43705 8.95948,-0.95058 13.59218,-1.3767 a 30.593332,30.593332 0 0 1 -0.88502,12.93661 1.6935594,1.6935594 0 0 0 1.69356,-1.03799 c 0.33871,-0.6228 0.44798,-1.34392 0.73206,-1.99949 1.09262,-2.49118 4.29399,-3.08119 6.55571,-4.52345 3.97713,-2.46932 5.69255,-7.82315 9.97561,-9.6806 a 1.5624452,1.5624452 0 0 1 1.00521,-0.17482 c 0.93965,0.2513 1.09262,1.90116 2.10876,1.8356 a 1.4422571,1.4422571 0 0 0 0.80853,-0.4589 c 1.74819,-1.5843 3.93343,-2.89544 5.6707,-4.46881 0.24037,0.46982 0.46982,0.93965 0.69927,1.40948 q 3.64935,7.3861 7.28777,14.78313 c 0.95058,1.92301 2.01042,3.96621 3.90065,4.98234 -0.73205,2.18524 -4.55622,1.92301 -5.24457,4.14103 z"
       opacity="0.1"
       id="path572"
       style="stroke-width:1.09262" />
    <path
       d="m 646.72572,505.63624 c -0.30593,2.93915 -3.52916,4.68734 -4.61085,7.44074 a 13.329952,13.329952 0 0 0 -0.53538,4.52344 c -0.10926,4.37047 -1.09262,8.54428 -1.63893,12.81642 -0.54631,4.27214 -0.65557,8.74095 0.9178,12.76179 0.93965,2.38191 2.44747,4.54529 3.09211,7.02554 0.43705,1.66078 0.46983,3.45268 1.24559,4.98234 1.69356,3.27786 6.0094,4.1301 9.71338,4.53437 a 14.564611,14.564611 0 0 0 4.07547,0.0656 14.204047,14.204047 0 0 0 4.87308,-2.13061 167.10515,167.10515 0 0 0 16.81541,-11.60361 c 4.99327,-3.90065 9.83357,-8.22742 12.82734,-13.82163 1.19096,-2.2508 2.05413,-4.84031 1.47504,-7.30962 a 5.6051354,5.6051354 0 0 1 -0.38242,-2.92822 c 0.68835,-2.18524 4.50159,-1.95579 5.33198,-4.1301 -1.89023,-1.00521 -2.95007,-3.04841 -3.88972,-4.97142 l -7.98705,-16.20354 c -1.74819,1.5843 -3.93342,2.89544 -5.67069,4.47974 a 1.5078142,1.5078142 0 0 1 -0.81946,0.4589 c -0.97243,0.0656 -1.1691,-1.5843 -2.10876,-1.8356 a 1.5952237,1.5952237 0 0 0 -0.99428,0.16389 c -4.29399,1.86838 -6.0094,7.22221 -9.98654,9.69153 -2.31635,1.44226 -5.46309,2.03227 -6.55571,4.52345 -0.28408,0.64464 -0.39334,1.3767 -0.73206,1.99949 a 1.6935594,1.6935594 0 0 1 -1.69356,1.09262 30.462217,30.462217 0 0 0 0.88503,-12.93661 c -4.67641,0.37149 -9.01411,0.88502 -13.64682,1.31114 z"
       fill="#454b69"
       id="path574"
       style="stroke-width:1.09262" />
    <path
       d="m 754.75296,631.57151 c 0.29501,-0.10927 0.59002,-0.22945 0.88503,-0.31686 a 3.627495,3.627495 0 0 0 0.98335,-3.93343 c -0.38241,-1.02706 -2.5021,-1.09262 -3.38712,-1.34392 q -5.00419,-1.20188 -10.01931,-2.2508 c -2.40376,-0.51353 -5.03698,-0.9615 -7.21129,0.16389 -0.80854,0.42613 -1.47503,1.84653 -2.02134,2.56766 l 0.84131,0.72113 c 0.90688,0.7539 1.8356,1.49689 2.79711,2.18524 a 0.68834996,0.68834996 0 0 1 0.72113,-0.22945 0.65557139,0.65557139 0 0 1 0.31686,0.34963 2.185238,2.185238 0 0 1 0.22945,0.68835 18.858604,18.858604 0 0 0 15.86482,1.39856 z"
       fill="#454b69"
       id="path576"
       style="stroke-width:1.09262" />
    <path
       d="m 1138,430.47498 v 93.35337 c 0,2.77525 -5.2009,5.03697 -11.6364,5.03697 H 879.93432 c -6.43552,0 -11.64732,-2.26172 -11.64732,-5.03697 v -93.35337 c 0,-2.78618 5.2118,-5.61606 11.64732,-5.61606 h 246.44018 c 6.4356,0 11.6255,2.82988 11.6255,5.61606 z"
       fill="#3f3d56"
       id="path578"
       style="stroke-width:1.09262" />
    <rect
       x="986.66132"
       y="458.22787"
       width="128.36089"
       height="4.534369"
       fill="#00b0ff"
       id="rect580"
       style="stroke-width:1.09262" />
    <rect
       x="986.66132"
       y="469.26331"
       width="128.36089"
       height="4.534369"
       fill="#00b0ff"
       opacity="0.5"
       id="rect582"
       style="stroke-width:1.09262" />
    <rect
       x="986.66132"
       y="480.30969"
       width="128.36089"
       height="4.534369"
       fill="#00b0ff"
       opacity="0.5"
       id="rect584"
       style="stroke-width:1.09262" />
    <rect
       x="986.66132"
       y="491.35605"
       width="128.36089"
       height="4.534369"
       fill="#00b0ff"
       opacity="0.5"
       id="rect586"
       style="stroke-width:1.09262" />
    <path
       d="m 921.71607,448.26282 a 30.429439,30.429439 0 0 0 -16.7717,55.83283 v -5.15716 a 6.9272044,6.9272044 0 0 1 6.08589,-6.85072 12.018809,12.018809 0 0 0 21.17495,0 6.9381306,6.9381306 0 0 1 6.09682,6.85072 v 5.28827 a 30.440365,30.440365 0 0 0 -16.58596,-55.96394 z m 13.38458,37.14904 a 1.8793047,1.8793047 0 0 1 -0.40427,0.52446 1.7481904,1.7481904 0 0 1 -0.88502,0.29501 5.7253235,5.7253235 0 0 1 -0.61186,0 12.07344,12.07344 0 0 1 -23.6552,-3.43083 11.920473,11.920473 0 0 1 1.57337,-5.94384 1.3657737,1.3657737 0 0 1 -0.13112,-0.0874 c -1.51874,-1.25651 -1.09262,-4.53437 0.39335,-5.58329 a 8.2820519,8.2820519 0 0 1 2.50209,-0.9178 11.046378,11.046378 0 0 0 6.33719,-4.8403 10.314323,10.314323 0 0 1 -0.0656,1.8356 2.6769165,2.6769165 0 0 1 3.82416,-0.13111 7.2877687,7.2877687 0 0 0 1.09262,1.22373 3.0374808,3.0374808 0 0 0 1.35485,0.38242 l 3.02655,0.39334 a 4.370476,4.370476 0 0 1 4.59993,3.27786 30.276472,30.276472 0 0 1 1.98857,6.41367 10.259692,10.259692 0 0 1 -0.93966,6.59942 z"
       fill="#00b0ff"
       opacity="0.5"
       id="path588"
       style="stroke-width:1.09262" />
    <path
       d="m 1138,168.59606 v 93.36429 c 0,2.77526 -5.2009,5.03698 -11.6364,5.03698 H 879.93432 c -6.43552,0 -11.64732,-2.26172 -11.64732,-5.03698 v -93.36429 c 0,-2.77525 5.2118,-5.61606 11.64732,-5.61606 h 246.44018 c 6.4356,0.0109 11.6255,2.84081 11.6255,5.61606 z"
       fill="#3f3d56"
       id="path590"
       style="stroke-width:1.09262" />
    <rect
       x="986.66132"
       y="196.34842"
       width="128.36089"
       height="4.534369"
       fill="#00b0ff"
       id="rect592"
       style="stroke-width:1.09262" />
    <rect
       x="986.66132"
       y="207.39481"
       width="128.36089"
       height="4.534369"
       fill="#00b0ff"
       opacity="0.5"
       id="rect594"
       style="stroke-width:1.09262" />
    <rect
       x="986.66132"
       y="218.44124"
       width="128.36089"
       height="4.534369"
       fill="#00b0ff"
       opacity="0.5"
       id="rect596"
       style="stroke-width:1.09262" />
    <rect
       x="986.66132"
       y="229.47673"
       width="128.36089"
       height="4.534369"
       fill="#00b0ff"
       opacity="0.5"
       id="rect598"
       style="stroke-width:1.09262" />
    <path
       d="m 921.71607,186.39482 a 30.429439,30.429439 0 0 0 -16.7717,55.83284 v -5.15717 a 6.9162782,6.9162782 0 0 1 6.08589,-6.85072 12.018809,12.018809 0 0 0 21.17495,0 6.9272044,6.9272044 0 0 1 6.09682,6.85072 v 5.27735 a 30.429439,30.429439 0 0 0 -16.58596,-55.95302 z m 13.38458,37.14905 a 1.6061499,1.6061499 0 0 1 -0.40427,0.52446 1.6498547,1.6498547 0 0 1 -0.88502,0.295 5.7253235,5.7253235 0 0 1 -0.61186,0 12.07344,12.07344 0 0 1 -23.6552,-3.41989 11.887695,11.887695 0 0 1 1.57337,-5.94385 l -0.13112,-0.0874 c -1.51874,-1.26744 -1.09262,-4.53437 0.39335,-5.58328 a 8.0088972,8.0088972 0 0 1 2.50209,-0.9178 11.057304,11.057304 0 0 0 6.33719,-4.85123 10.401733,10.401733 0 0 1 -0.0656,1.84653 2.6878427,2.6878427 0 0 1 3.82416,-0.14205 6.8834996,6.8834996 0 0 0 1.09262,1.22374 3.1904474,3.1904474 0 0 0 1.35485,0.39334 l 3.02655,0.38242 a 5.8564378,5.8564378 0 0 1 3.45268,1.24558 5.7143973,5.7143973 0 0 1 1.14725,2.0432 30.593332,30.593332 0 0 1 1.98857,6.4246 10.226914,10.226914 0 0 1 -0.93966,6.56664 z"
       fill="#00b0ff"
       opacity="0.5"
       id="path600"
       style="stroke-width:1.09262" />
    <path
       d="m 1015.6267,298.98921 v 93.36429 c 0,2.77526 -5.2118,5.02605 -11.6473,5.02605 H 757.50636 c -6.4246,0 -11.63639,-2.25079 -11.63639,-5.02605 v -93.36429 c 0,-2.78618 5.21179,-5.61606 11.63639,-5.61606 h 246.44024 c 6.4355,0 11.6801,2.82988 11.6801,5.61606 z"
       fill="#3f3d56"
       id="path602"
       style="stroke-width:1.09262" />
    <rect
       x="864.2334"
       y="326.7421"
       width="128.36089"
       height="4.534369"
       fill="#00b0ff"
       id="rect604"
       style="stroke-width:1.09262" />
    <path
       d="m 799.28811,316.77705 a 30.440365,30.440365 0 0 0 -16.78262,55.83283 v -2.02135 a 6.9162782,6.9162782 0 0 1 6.08588,-6.85072 12.084366,12.084366 0 0 0 21.18589,0 6.9162782,6.9162782 0 0 1 6.08588,6.85072 v 2.18524 a 30.429439,30.429439 0 0 0 -16.57503,-55.99672 z m 11.9314,38.5913 a 12.018809,12.018809 0 0 1 -24.03761,0 13.231616,13.231616 0 0 1 6.9272,-17.6895 4.0208379,4.0208379 0 0 1 3.38712,-6.20608 h 0.28408 a 4.0099117,4.0099117 0 0 0 -3.20137,5.99848 h 0.12018 a 3.8678712,3.8678712 0 0 1 -0.0765,-0.79761 3.9334284,3.9334284 0 0 1 0.75391,-2.3382 4.0099117,4.0099117 0 0 1 3.84602,-2.84081 h 0.28408 a 3.9989855,3.9989855 0 0 0 -3.07026,1.79189 4.0208379,4.0208379 0 0 1 6.23885,3.36527 2.9828498,2.9828498 0 0 1 0,0.44797 13.231616,13.231616 0 0 1 8.60984,18.26859 z"
       fill="#00b0ff"
       opacity="0.5"
       id="path606"
       style="stroke-width:1.09262" />
    <rect
       x="864.2334"
       y="337.78848"
       width="128.36089"
       height="4.534369"
       fill="#00b0ff"
       opacity="0.5"
       id="rect608"
       style="stroke-width:1.09262" />
    <rect
       x="864.2334"
       y="348.82391"
       width="128.36089"
       height="4.534369"
       fill="#00b0ff"
       opacity="0.5"
       id="rect610"
       style="stroke-width:1.09262" />
    <rect
       x="864.2334"
       y="359.8703"
       width="128.36089"
       height="4.534369"
       fill="#00b0ff"
       opacity="0.5"
       id="rect612"
       style="stroke-width:1.09262" />
  </g>
</svg>
