<?xml version="1.0" encoding="UTF-8" standalone="no"?>
<svg
   xmlns:dc="http://purl.org/dc/elements/1.1/"
   xmlns:cc="http://creativecommons.org/ns#"
   xmlns:rdf="http://www.w3.org/1999/02/22-rdf-syntax-ns#"
   xmlns:svg="http://www.w3.org/2000/svg"
   xmlns="http://www.w3.org/2000/svg"
   xmlns:xlink="http://www.w3.org/1999/xlink"
   xmlns:sodipodi="http://sodipodi.sourceforge.net/DTD/sodipodi-0.dtd"
   xmlns:inkscape="http://www.inkscape.org/namespaces/inkscape"
   id="OBJECTS"
   viewBox="0 0 223.82 187.94"
   version="1.1"
   sodipodi:docname="details-3-support-worker.svg"
   inkscape:version="1.0 (b51213c273, 2020-08-10)">
  <metadata
     id="metadata163">
    <rdf:RDF>
      <cc:Work
         rdf:about="">
        <dc:format>image/svg+xml</dc:format>
        <dc:type
           rdf:resource="http://purl.org/dc/dcmitype/StillImage" />
      </cc:Work>
    </rdf:RDF>
  </metadata>
  <sodipodi:namedview
     pagecolor="#ffffff"
     bordercolor="#666666"
     borderopacity="1"
     objecttolerance="10"
     gridtolerance="10"
     guidetolerance="10"
     inkscape:pageopacity="0"
     inkscape:pageshadow="2"
     inkscape:window-width="1360"
     inkscape:window-height="731"
     id="namedview161"
     showgrid="false"
     inkscape:zoom="2.5646483"
     inkscape:cx="110.72063"
     inkscape:cy="47.332642"
     inkscape:window-x="0"
     inkscape:window-y="0"
     inkscape:window-maximized="1"
     inkscape:current-layer="OBJECTS"
     inkscape:document-rotation="0" />
  <defs
     id="defs24">
    <style
       id="style2">.cls-1{fill:#f0f0f0;}.cls-2{fill:url(#linear-gradient);}.cls-3{clip-path:url(#clip-path);}.cls-4{clip-path:url(#clip-path-2);}.cls-5{fill:url(#linear-gradient-4);}.cls-6{fill:#d1e8e6;}.cls-7{fill:#00bfd8;}.cls-8{fill:#fff;}.cls-9{fill:#c5e0e2;}.cls-10{fill:#dfe2ef;}.cls-11{fill:#3d415b;}.cls-12,.cls-26{fill:none;stroke:#3d415b;stroke-miterlimit:10;}.cls-12{stroke-width:2.496px;}.cls-13{fill:#ffe0bc;}.cls-14{fill:#efc9a3;}.cls-15{fill:#129093;}.cls-16{fill:#303348;}.cls-17{fill:#282c3c;}.cls-18{fill:#007c86;}.cls-19{fill:#c2dff1;}.cls-20{fill:#a5c3d3;}.cls-21{fill:#ecf2f5;}.cls-22{fill:#fcd8b6;}.cls-23{fill:#29323d;}.cls-24{fill:#33d18d;}.cls-25{fill:#8b4200;}.cls-26{stroke-width:2px;}</style>
    <linearGradient
       id="linear-gradient"
       x1="11.085"
       y1="94.946"
       x2="205.828"
       y2="94.946"
       gradientUnits="userSpaceOnUse">
      <stop
         offset="0"
         stop-color="#00bfc2"
         id="stop4" />
      <stop
         offset="0.246"
         stop-color="#00bbc5"
         id="stop6" />
      <stop
         offset="0.49"
         stop-color="#00afcf"
         id="stop8" />
      <stop
         offset="0.732"
         stop-color="#009bdf"
         id="stop10" />
      <stop
         offset="0.972"
         stop-color="#0080f5"
         id="stop12" />
      <stop
         offset="1"
         stop-color="#007cf8"
         id="stop14" />
    </linearGradient>
    <clipPath
       id="clip-path">
      <path
         class="cls-1"
         d="M142.192,78.942C107.7,58.1,91.425-5.932,38.182,32.332S7.017,149.21,58.038,168.223s116.665,8.272,135.138-27.048C224.741,80.823,165.328,92.923,142.192,78.942Z"
         id="path17" />
    </clipPath>
    <clipPath
       id="clip-path-2">
      <path
         class="cls-2"
         d="M145.8,74.942C111.315,54.1,95.036-9.932,41.793,28.332S10.628,145.21,61.65,164.223s116.665,8.272,135.138-27.048C228.353,76.823,168.939,88.923,145.8,74.942Z"
         id="path20" />
    </clipPath>
    <linearGradient
       id="linear-gradient-4"
       x1="5.899"
       y1="120.193"
       x2="217.355"
       y2="120.193"
       xlink:href="#linear-gradient" />
    <linearGradient
       id="019be7ee-c174-4831-83df-34be516e09e3"
       x1="477.63"
       y1="628.28998"
       x2="583.5"
       y2="628.28998"
       xlink:href="#c4984e62-c3a2-4d63-a7f1-72d003cbf332" />
    <linearGradient
       id="c4984e62-c3a2-4d63-a7f1-72d003cbf332"
       x1="337.01999"
       y1="284.70001"
       x2="337.01999"
       y2="157.05"
       gradientUnits="userSpaceOnUse">
      <stop
         offset="0"
         stop-color="gray"
         stop-opacity="0.25"
         id="stop2" />
      <stop
         offset="0.54"
         stop-color="gray"
         stop-opacity="0.12"
         id="stop4-3" />
      <stop
         offset="1"
         stop-color="gray"
         stop-opacity="0.1"
         id="stop6-6" />
    </linearGradient>
    <linearGradient
       id="aa3e344a-b185-47a1-8d72-ce117b4596cd"
       x1="1022.23"
       y1="742.95001"
       x2="1022.23"
       y2="530.73999"
       xlink:href="#c4984e62-c3a2-4d63-a7f1-72d003cbf332" />
    <linearGradient
       id="d81b2846-b84e-4cfc-aa5a-6d397f959497"
       x1="445.5"
       y1="447"
       x2="445.5"
       y2="83.790001"
       xlink:href="#c4984e62-c3a2-4d63-a7f1-72d003cbf332"
       gradientTransform="matrix(0.21837559,0,0,0.21837559,5.9000025,51.410134)" />
    <linearGradient
       id="ae1c94bd-8073-45d7-9d65-5e742daca578"
       x1="277.82001"
       y1="250.69"
       x2="277.82001"
       y2="249.92"
       xlink:href="#c4984e62-c3a2-4d63-a7f1-72d003cbf332" />
    <linearGradient
       inkscape:collect="always"
       xlink:href="#linear-gradient"
       id="linearGradient1188"
       gradientUnits="userSpaceOnUse"
       x1="11.085"
       y1="94.946"
       x2="205.828"
       y2="94.946"
       gradientTransform="matrix(-1.0013101,0,0,-1.0013101,217.72286,184.90055)" />
    <linearGradient
       id="b5fdf2dc-9f7f-4cfc-bfc1-c2a944f796c6"
       x1="639.01001"
       y1="505.57001"
       x2="639.01001"
       y2="392.26999"
       gradientTransform="rotate(-9.06,588.50661,440.73665)"
       gradientUnits="userSpaceOnUse">
      <stop
         offset="0"
         stop-color="gray"
         stop-opacity="0.25"
         id="stop2-2" />
      <stop
         offset="0.54"
         stop-color="gray"
         stop-opacity="0.12"
         id="stop4-37" />
      <stop
         offset="1"
         stop-color="gray"
         stop-opacity="0.1"
         id="stop6-5" />
    </linearGradient>
    <linearGradient
       id="84e2b2cb-4695-4b74-8c91-208d34301889"
       x1="385.82001"
       y1="432.35999"
       x2="444.34"
       y2="432.35999"
       xlink:href="#b5fdf2dc-9f7f-4cfc-bfc1-c2a944f796c6"
       gradientTransform="matrix(0.30296832,0,0,0.30296832,-55.248331,-79.198222)" />
    <linearGradient
       inkscape:collect="always"
       xlink:href="#b5fdf2dc-9f7f-4cfc-bfc1-c2a944f796c6"
       id="linearGradient1655"
       gradientUnits="userSpaceOnUse"
       gradientTransform="matrix(0.29918849,-0.04770803,0.04770803,0.29918849,-74.050546,-49.455821)"
       x1="639.01001"
       y1="505.57001"
       x2="639.01001"
       y2="392.26999" />
  </defs>
  <title
     id="title26">details-1-office-worker</title>
  <path
     class="cls-2"
     d="m 71.731844,109.86035 c 34.530176,20.86932 50.830506,84.9852 104.143276,46.67107 C 229.18788,118.21729 207.08095,39.500303 155.9921,20.462393 104.90325,1.4244828 39.174248,12.179555 20.677045,47.545826 -10.929311,107.97689 48.562532,95.861038 71.731844,109.86035 Z"
     id="path38"
     style="fill:url(#linearGradient1188);stroke-width:1.00131" />
  <g
     class="cls-4"
     clip-path="url(#clip-path-2)"
     id="g42"
     transform="matrix(-1.0013101,0,0,-1.0013101,217.72286,184.90054)">
    <path
       class="cls-5"
       d="m 5.9,149.024 c 0,0 29.411,-29.492 78.534,-15.5 49.123,13.992 78.045,2 71.946,-72.159 0,0 69.044,9.633 60.192,58.693 C 205.828,179.6 67.161,202.319 5.9,149.024 Z"
       id="path40"
       style="fill:url(#linear-gradient-4)" />
  </g>
  <circle
     class="cls-8"
     cx="-9.7374086"
     cy="38.096443"
     r="0.94323415"
     id="circle48"
     style="stroke-width:1.00131" />
  <circle
     class="cls-8"
     cx="-5.9624686"
     cy="38.096443"
     r="0.94323415"
     id="circle50"
     style="stroke-width:1.00131" />
  <circle
     class="cls-8"
     cx="-2.1865284"
     cy="38.096443"
     r="0.94323415"
     id="circle52"
     style="stroke-width:1.00131" />
  <path
     d="m 211.81522,35.681309 c -1.26338,-0.10907 -5.66551,-3.656827 -8.2165,-4.702068 -1.17552,-0.48172 -1.91172,0.536254 -2.36618,1.772365 -1.56332,-1.021003 -3.27811,-2.151075 -4.54452,-2.666121 a 1.2997341,1.2997341 0 0 0 -1.0513,-0.02121 c -1.6421,0.711976 -1.99353,5.005038 -1.99353,5.005038 l 0.0576,0.269641 c -0.80589,0.633204 -3.22358,1.030092 -4.27185,1.099774 -1.23308,0.07877 -2.86306,0.260554 -3.4387,0.545344 -0.57564,0.284791 -7.27123,1.896582 -11.12196,3.072099 -3.85073,1.175518 -13.79718,7.031895 -13.79718,7.031895 l -9.42837,2.120778 -1.32398,-0.254493 c -0.42112,-1.514842 -2.34799,-1.499693 -4.6051,-0.887697 -3.66593,-0.67259 -7.32275,-1.196725 -8.50433,-0.660471 3.3781,-1.72086 7.53179,-4.450605 7.48331,-7.46211 -0.0668,-4.108251 -8.19832,1.654207 -11.27648,3.984033 l -0.26358,0.199959 -0.0698,-0.260552 c 0,0 -2.245,0.875578 -7.0319,0.76045 -4.78689,-0.115132 -6.91676,2.135928 -7.34698,2.360123 -0.43021,0.224197 -4.81114,1.699653 -5.15046,1.757217 -0.26358,0.04242 -7.81961,0.727123 -11.63398,1.069478 -5.274684,-0.47566 -12.891308,0.354473 -13.309404,1.142191 -0.47869,0.908902 -6.277503,4.217316 -6.277503,4.217316 l -1.987473,0.521106 c 0,0 -0.236315,0.605936 -0.508986,1.381536 a 5.3898066,5.3898066 0 0 1 -0.490809,-0.936174 16.011875,16.011875 0 0 1 -0.702887,-2.47222 v 0 c -0.02424,-0.112102 -0.0515,-0.224197 -0.07877,-0.336295 0,-0.02727 -0.01514,-0.05454 -0.02121,-0.0818 l -0.07271,-0.281761 -0.01817,-0.06969 a 9.8373816,9.8373816 0 0 0 -0.357503,-1.069478 v 0 a 5.6867155,5.6867155 0 0 0 -0.515046,-1.002821 v 0 A 3.5477591,3.5477591 0 0 0 76.433748,49.68753 c -0.76045,-0.463542 -1.678445,-0.57261 -2.563112,-0.67259 a 11.209829,11.209829 0 0 0 -2.251055,-0.09695 c -0.645322,0.0606 -1.278527,0.236315 -1.923849,0.275701 -1.039181,0.0606 -2.060185,-0.233286 -3.090277,-0.39083 -1.030092,-0.157542 -2.151075,-0.154513 -3.029682,0.421126 -0.739243,0.49081 -1.166429,1.317913 -1.642089,2.066244 a 13.397259,13.397259 0 0 1 -3.381127,3.61744 c -0.908905,0.65744 -1.942027,1.290644 -2.272262,2.351033 -0.330236,1.06039 0.127246,2.087452 0.330235,3.132692 0.448393,2.302565 -0.275702,4.829315 0.530195,6.968281 v 0 c 0.01819,0.04843 0.03636,0.09394 0.05757,0.142386 0.04544,0.115133 0.09393,0.23329 0.151485,0.345385 v 0 a 3.1448112,3.1448112 0 0 0 0.169661,0.302975 2.2874109,2.2874109 0 0 0 0.199959,0.2757 1.6027025,1.6027025 0 0 0 0.239345,0.236318 1.4572776,1.4572776 0 0 0 0.28176,0.184806 2.075333,2.075333 0 0 0 1.178547,0.136331 l 0.218138,-0.03028 0.199958,-0.03633 a 6.1320789,6.1320789 0 0 0 0.696829,-0.166633 2.696418,2.696418 0 0 0 0.648352,-0.287819 1.463337,1.463337 0 0 0 0.675619,-1.0513 3.53867,3.53867 0 0 0 0.04241,-0.572611 v -0.133304 l 0.04544,0.139358 v 0 a 9.0072484,9.0072484 0 0 0 16.402706,1.260354 l 0.342355,-0.115133 a 21.207784,21.207784 0 0 1 3.369006,-0.781653 v 0 a 6.9500935,6.9500935 0 0 0 0.418096,0.733179 c 3.729541,5.813966 15.384732,6.013928 15.384732,6.013928 0,0 12.879187,-0.499899 13.875947,-0.760455 0.99677,-0.260554 3.96889,0.193897 4.82629,0.990708 0.8574,0.79681 4.63541,1.127038 5.86243,-0.933141 1.22703,-2.06019 2.63583,-1.663294 2.63583,-1.663294 a 6.1199602,6.1199602 0 0 0 0.64835,-1.105838 l 0.82104,0.03935 c 2.16622,0.115132 5.6443,0.33933 6.39567,0.642295 1.10886,0.445361 5.87153,0.412043 8.44675,-0.672587 2.57524,-1.084628 10.60389,-5.683688 10.60389,-5.683688 0,0 4.99292,-1.514844 5.88061,-1.817808 0.88771,-0.302975 3.21147,-2.520703 3.21147,-2.520703 l 4.78691,-1.854165 c 0,0 5.05653,-2.726715 7.18943,-3.011506 2.1329,-0.284789 4.06583,-2.151074 4.06583,-2.151074 l 13.55784,-6.313858 a 7.0409838,7.0409838 0 0 1 2.72672,0.136335 c 1.21187,0.378711 9.10419,-0.778629 11.4946,-3.332651 0,0 0.0879,-0.330235 0.20602,-0.869519 0.10909,0 0.22117,-0.02121 0.33934,-0.02424 0.50898,0.112101 0.82104,0.187841 0.82104,0.187841 a 21.013884,21.013884 0 0 0 3.20541,1.978383 c 1.60876,0.772568 3.33265,1.196724 3.93858,-0.127248 a 2.372242,2.372242 0 0 0 0.18178,-0.642293 c 1.55725,1.105835 6.79861,4.514229 6.94706,0.454453 0.18179,-4.768721 -7.45605,-9.110258 -8.7164,-9.219327 z"
     fill="url(#b5fdf2dc-9f7f-4cfc-bfc1-c2a944f796c6)"
     id="path16"
     style="fill:url(#linearGradient1655);stroke-width:0.302969" />
  <path
     d="m 85.356239,66.874927 c 0,0 -2.447984,-0.154515 -5.859407,0.936167 a 21.565285,21.565285 0 0 0 -3.287207,1.342158 c -5.017154,2.52675 -0.85134,-11.106823 -0.85134,-11.106823 0,0 1.396684,0 3.075129,-0.142396 2.00565,-0.160572 4.411217,-0.493837 5.301945,-1.190665 1.636028,-1.293675 1.62088,10.161559 1.62088,10.161559 z"
     fill="#efb7b9"
     id="path18"
     style="stroke-width:0.302969" />
  <path
     d="m 144.60473,40.150093 c 0.0605,3.811342 -6.70166,7.165201 -9.91312,8.543706 -0.9998,0.427186 -1.66027,0.663501 -1.66027,0.663501 l -0.69986,-4.386982 c 0,0 0.43931,-0.354472 1.14824,-0.890725 3.0509,-2.299531 11.05835,-7.983216 11.12501,-3.9295 z"
     fill="#efb7b9"
     id="path20-9"
     style="stroke-width:0.302969" />
  <path
     d="m 134.69161,48.693799 c -0.9998,0.427186 -1.66027,0.663501 -1.66027,0.663501 l -0.69986,-4.386982 c 0,0 0.43931,-0.354472 1.14824,-0.890725 z"
     opacity="0.1"
     id="path22"
     style="stroke-width:0.302969" />
  <path
     d="m 100.26834,50.078365 c 0,0 13.2579,-1.190666 13.60631,-1.24823 0.34841,-0.05757 4.66874,-1.514841 5.09289,-1.729949 0.42416,-0.215108 2.52374,-2.444955 7.24701,-2.329826 4.72328,0.115133 6.93797,-0.748332 6.93797,-0.748332 l 1.56029,5.93818 -31.49053,3.571992 z"
     fill="#e1e7ef"
     id="path24"
     style="stroke-width:0.302969" />
  <path
     d="m 100.26834,50.078365 c 0,0 13.2579,-1.190666 13.60631,-1.24823 0.34841,-0.05757 4.66874,-1.514841 5.09289,-1.729949 0.42416,-0.215108 2.52374,-2.444955 7.24701,-2.329826 4.72328,0.115133 6.93797,-0.748332 6.93797,-0.748332 l 1.56029,5.93818 -31.49053,3.571992 z"
     opacity="0.05"
     id="path26"
     style="stroke-width:0.302969" />
  <path
     d="m 192.89788,35.323808 c 0,0 0.48476,-5.94727 2.99938,-4.917177 2.51464,1.030093 6.8592,4.544525 8.10442,4.641475 1.24519,0.09695 8.78607,4.390012 8.60732,9.089051 -0.17875,4.699038 -7.27125,-0.760451 -7.27125,-0.760451 0,0 -6.59865,-1.620881 -8.73154,-0.890727 -2.13289,0.730154 -3.70833,-7.162171 -3.70833,-7.162171 z"
     fill="#b07473"
     id="path28"
     style="stroke-width:0.302969" />
  <path
     d="m 212.609,44.146245 c -0.17269,4.699039 -7.27125,-0.76045 -7.27125,-0.76045 0,0 -6.59561,-1.620881 -8.73154,-0.890727 -0.60593,0.212078 -1.21187,-0.302968 -1.69661,-1.15431 -0.95436,-1.61179 -1.64513,-4.40516 -1.89659,-5.526142 -0.0698,-0.302969 -0.10307,-0.481719 -0.10307,-0.481719 0,0 0.48475,-5.947269 2.99938,-4.914147 2.51465,1.033122 6.85617,4.529377 8.10138,4.638445 1.2452,0.10907 8.7679,4.390012 8.59824,9.08905 z"
     opacity="0.1"
     id="path30"
     style="stroke-width:0.302969" />
  <path
     d="m 199.00268,38.8443 c -0.21509,0.551402 -1.73902,1.42698 -4.10521,2.496458 -0.95435,-1.61179 -1.64512,-4.40516 -1.89658,-5.526142 0.44536,-0.190871 0.76045,-0.412037 0.81195,-0.660471 0.17573,-0.830133 6.42294,0.527164 5.18984,3.690155 z"
     opacity="0.1"
     id="path32"
     style="stroke-width:0.302969" />
  <path
     d="m 146.27105,50.472224 14.49704,-3.284177 c 0,0 9.81617,-5.777607 13.63357,-6.934946 3.81741,-1.157338 10.40091,-2.747922 10.97049,-3.029682 0.56957,-0.281761 2.17531,-0.463542 3.39021,-0.539284 1.21491,-0.07574 4.30215,-0.605936 4.47788,-1.43304 0.17571,-0.827103 6.42293,0.524135 5.18984,3.687125 -1.23308,3.162988 -45.29073,16.926837 -45.29073,16.926837 z"
     fill="#444053"
     id="path34"
     style="stroke-width:0.302969" />
  <path
     d="m 146.27105,50.472224 14.49704,-3.284177 c 0,0 9.81617,-5.777607 13.63357,-6.934946 3.81741,-1.157338 10.40091,-2.747922 10.97049,-3.029682 0.56957,-0.281761 2.17531,-0.463542 3.39021,-0.539284 1.21491,-0.07574 4.30215,-0.605936 4.47788,-1.43304 0.17571,-0.827103 6.42293,0.524135 5.18984,3.687125 -1.23308,3.162988 -45.29073,16.926837 -45.29073,16.926837 z"
     opacity="0.1"
     id="path36"
     style="stroke-width:0.302969" />
  <path
     d="m 219.41973,45.018794 c -0.17269,4.702069 -7.27124,-0.760451 -7.27124,-0.760451 0,0 -4.61421,-1.1331 -7.37122,-1.078568 a 4.544525,4.544525 0 0 0 -1.36033,0.187842 c -2.12078,0.730154 -3.69925,-7.162172 -3.69925,-7.162172 0,0 0.0303,-0.381739 0.11817,-0.933143 0.25753,-1.636028 1.00282,-4.753573 2.88425,-3.984032 2.51464,1.033121 6.85617,4.544524 8.10136,4.638445 1.24522,0.09391 8.76791,4.402129 8.59826,9.092079 z"
     fill="#b07473"
     id="path38-2"
     style="stroke-width:0.302969" />
  <path
     d="m 204.76818,43.200984 a 4.544525,4.544525 0 0 0 -1.36033,0.18784 c -2.12079,0.730155 -3.69925,-7.162171 -3.69925,-7.162171 0,0 0.0303,-0.381741 0.11816,-0.933143 1.76934,-0.378709 3.25085,-0.718034 3.25085,-0.718034 3.24782,0.142395 2.18138,6.368394 1.69057,8.625508 z"
     opacity="0.1"
     id="path40-2"
     style="stroke-width:0.302969" />
  <path
     d="m 203.98046,44.082622 c -2.36012,2.523727 -10.15247,3.662887 -11.3401,3.293266 a 6.934945,6.934945 0 0 0 -2.68128,-0.139367 l -13.37302,6.225997 c 0,0 -1.90869,1.835989 -4.01129,2.120778 -2.1026,0.284791 -7.0925,2.96909 -7.0925,2.96909 l -4.72024,1.817811 c 0,0 -2.30559,2.220754 -3.17814,2.523728 -0.87255,0.302965 -5.80184,1.790544 -5.80184,1.790544 0,0 -7.91656,4.544521 -10.45847,5.607939 -2.5419,1.06342 -7.23489,1.099774 -8.33162,0.660468 -0.73924,-0.302964 -4.17188,-0.518071 -6.30478,-0.633204 -1.01191,-0.05146 -1.73299,-0.07881 -1.73299,-0.07881 l -2.49646,-18.877957 c 0,0 2.06322,-0.457482 4.66875,-1.072507 3.78407,-0.890728 8.71337,-2.120779 10.07976,-2.763071 2.31165,-1.087657 14.63337,2.120778 16.89352,2.166224 2.26014,0.04544 13.78808,-3.63562 13.78808,-3.63562 0,0 14.40312,-8.125611 17.31767,-8.128641 2.91455,-0.003 6.69864,-1.272467 9.04967,-1.596642 2.35103,-0.324177 8.22255,-1.669357 8.22255,-1.669357 3.96586,0.181781 1.50273,9.419286 1.50273,9.419286 z"
     fill="#444053"
     id="path42"
     style="stroke-width:0.302969" />
  <path
     d="m 80.423915,62.239511 a 8.8587939,8.8587939 0 0 1 -0.927083,5.571583 21.565285,21.565285 0 0 0 -3.287207,1.342158 c -5.017154,2.52675 -0.85134,-11.106823 -0.85134,-11.106823 0,0 1.396684,0 3.075129,-0.142396 a 8.8375862,8.8375862 0 0 1 1.990501,4.335478 z"
     opacity="0.1"
     id="path44"
     style="stroke-width:0.302969" />
  <path
     d="M 80.123976,62.287986 A 8.886061,8.886061 0 0 1 62.982029,66.68103 v 0 c -0.05454,-0.151489 -0.103008,-0.302976 -0.151485,-0.457491 a 8.677013,8.677013 0 0 1 -0.260553,-1.133092 8.8890908,8.8890908 0 0 1 17.372205,-3.665922 7.9801857,7.9801857 0 0 1 0.18178,0.863461 z"
     fill="#efb7b9"
     id="path46"
     style="stroke-width:0.302969" />
  <path
     d="m 126.44783,62.269803 c 1.8875,3.678037 0.94829,6.628947 0.23935,8.037751 -1.01191,-0.05146 -1.73299,-0.07881 -1.73299,-0.07881 l -2.49646,-18.877957 c 0,0 2.06322,-0.457483 4.66875,-1.072508 l 0.26964,-0.02121 c 0,0 -3.61744,6.813755 -0.94829,12.012689 z"
     opacity="0.1"
     id="path48"
     style="stroke-width:0.302969" />
  <path
     d="m 125.55105,62.412198 c 2.66915,5.201973 -0.30297,8.946656 -0.30297,8.946656 0,0 -1.39062,-0.390822 -2.59947,1.642095 -1.20885,2.032915 -4.94444,1.70874 -5.78367,0.908903 -0.83922,-0.799836 -3.77801,-1.239143 -4.75963,-0.978589 -0.98161,0.260555 -13.685076,0.748336 -13.685076,0.748336 0,0 -11.494619,-0.193907 -15.175684,-5.929097 a 7.0379542,7.0379542 0 0 1 -0.412037,-0.72106 c 0,0 -2.905466,-5.435254 -2.996356,-6.647127 -0.03938,-0.47263 0.151484,-1.290645 0.393858,-2.120779 0.384771,-1.287614 0.908906,-2.593408 0.908906,-2.593408 l 1.960204,-0.515046 c 0,0 5.720041,-3.262969 6.189643,-4.156722 0.4696,-0.893758 10.240329,-1.835989 15.205982,-0.839223 4.96565,0.996765 14.35161,0.869519 14.35161,0.869519 l 7.67115,-0.645322 c 0,0 -3.62047,6.831932 -0.96646,12.030864 z"
     fill="#e1e7ef"
     id="path50"
     style="stroke-width:0.302969" />
  <path
     d="m 114.29577,71.377038 a 23.025593,23.025593 0 0 0 3.33266,-1.608767 c 1.7663,-1.057353 -3.33266,1.608767 -3.33266,1.608767 z"
     opacity="0.1"
     id="path52"
     style="stroke-width:0.302969" />
  <path
     d="m 86.237878,58.912919 c 0,0 3.774984,7.016748 11.846061,4.708132 8.071081,-2.308624 14.115291,-0.60594 14.115291,-0.60594 0,0 7.54998,-0.433242 8.9406,-1.011916 a 56.464208,56.464208 0 0 1 6.38052,-1.987471 c 1.19066,-0.242375 2.85093,-0.721066 4.16581,-1.130073 1.31488,-0.409008 8.34072,-1.887493 8.34072,-1.887493 0,0 -2.22075,-4.96262 -1.14522,-5.595822 0,0 -6.93495,1.411829 -7.01371,0.908902 -0.0788,-0.502927 -7.84993,-0.808925 -8.48313,-0.302968 -0.6332,0.505957 -7.5742,1.005856 -8.18014,1.233081 -0.60594,0.227226 -11.33102,1.169458 -11.33102,1.169458 0,0 -16.090644,-6.541083 -17.635782,4.50211 z"
     opacity="0.1"
     id="path54"
     style="stroke-width:0.302969" />
  <path
     d="m 137.13656,51.91738 c 0,0 12.63681,-7.322741 13.10034,-2.487368 0.46355,4.835372 -11.88846,6.598648 -11.88846,6.598648 z"
     fill="#efb7b9"
     id="path56"
     style="stroke-width:0.302969" />
  <path
     d="m 86.389361,57.967657 c 0,0 3.787104,7.01675 11.846062,4.708123 8.058957,-2.308613 14.118327,-0.605932 14.118327,-0.605932 0,0 7.54997,-0.433244 8.93756,-1.011914 a 56.312723,56.312723 0 0 1 6.38355,-1.987472 c 1.18764,-0.242375 2.85093,-0.721065 4.16581,-1.130072 1.31488,-0.409007 8.34072,-1.887492 8.34072,-1.887492 0,0 -2.22379,-4.962619 -1.14826,-5.595822 0,0 -6.93191,1.411829 -7.01371,0.908904 -0.0818,-0.502927 -7.8499,-0.808925 -8.48311,-0.302968 -0.6332,0.505954 -7.57421,1.005852 -8.18015,1.233079 -0.60593,0.227225 -11.32192,1.166427 -11.32192,1.166427 0,0 -16.096711,-6.538054 -17.644879,4.505139 z"
     opacity="0.1"
     id="path58"
     style="stroke-width:0.302969" />
  <path
     d="m 86.137898,58.313041 c 0,0 3.778014,7.016751 11.846061,4.708124 8.068051,-2.308615 14.118321,-0.605929 14.118321,-0.605929 0,0 7.54998,-0.433248 8.93757,-1.011919 a 56.352109,56.352109 0 0 1 6.38355,-1.9905 c 1.18763,-0.239345 2.85093,-0.721067 4.16581,-1.130073 1.31488,-0.409007 8.34071,-1.884462 8.34071,-1.884462 0,0 -2.22378,-4.965648 -1.14824,-5.595823 0,0 -6.93192,1.411829 -7.01372,0.908902 -0.0818,-0.502924 -7.8499,-0.808922 -8.48311,-0.302966 -0.63321,0.505955 -7.55907,1.005853 -8.18015,1.236109 -0.62109,0.230255 -11.32799,1.160369 -11.32799,1.160369 0,0 -16.090644,-6.535024 -17.638812,4.508168 z"
     fill="#e1e7ef"
     id="path60"
     style="stroke-width:0.302969" />
  <path
     d="m 112.47796,56.755784 c -0.11815,-0.324176 1.91779,-0.169662 5.93515,-0.945261 4.01736,-0.7756 10.77962,-2.629765 10.77962,-2.629765 0,0 -15.81192,6.02301 -16.71477,3.575026 z"
     opacity="0.1"
     id="path62"
     style="stroke-width:0.302969" />
  <path
     d="m 96.987193,54.525937 c 0,0 0.19087,0.545343 -1.769336,1.72692"
     opacity="0.1"
     id="path64"
     style="stroke-width:0.302969" />
  <path
     d="m 101.1015,55.319715 a 2.1692532,2.1692532 0 0 1 -1.430007,2.56917"
     opacity="0.1"
     id="path66"
     style="stroke-width:0.302969" />
  <path
     d="m 83.471777,67.417236 1.563316,1.451224 c 0,0 1.678445,0.908903 1.857195,1.393646 0.178752,0.484755 3.587145,0.396898 3.587145,0.396898 l 3.938589,2.48434 -1.672386,-2.332863 a 4.5687625,4.5687625 0 0 0 3.859817,-0.821037 c 1.917789,-1.430014 5.723067,-5.15046 5.723067,-5.15046 l 6.8683,-5.344366 0.11513,-3.44475 -5.40495,-0.875579 -12.579251,12.742846 -2.850931,0.40295 -3.029683,-0.336292 z"
     opacity="0.1"
     id="path68"
     style="stroke-width:0.302969" />
  <path
     d="m 83.126392,67.165772 1.563318,1.451225 c 0,0 1.675414,0.908903 1.857195,1.393647 0.181781,0.484753 3.590174,0.396897 3.590174,0.396897 l 3.938588,2.48434 -1.672385,-2.332864 a 4.5596733,4.5596733 0 0 0 3.856788,-0.821036 c 1.920819,-1.430014 5.7261,-5.150471 5.7261,-5.150471 l 6.87738,-5.329207 0.11513,-3.44475 -5.40495,-0.87558 -12.594394,12.742844 -2.850933,0.402951 -3.029682,-0.336293 z"
     fill="#67647e"
     id="path70"
     style="stroke-width:0.302969;fill:#0088ee;fill-opacity:1" />
  <path
     d="m 87.325533,66.408356 -3.44778,1.560291 a 6.5350268,6.5350268 0 0 1 -0.409006,-0.724098 c 0,0 -2.908497,-5.432224 -2.999387,-6.647127 -0.03938,-0.47263 0.151484,-1.290645 0.396889,-2.120779 z"
     opacity="0.1"
     id="path72"
     style="stroke-width:0.302969" />
  <path
     d="m 86.68021,66.205367 -3.447778,1.557253 a 7.0379542,7.0379542 0 0 1 -0.412037,-0.72106 c 0,0 -2.905466,-5.435254 -2.996356,-6.647127 -0.03938,-0.47263 0.151483,-1.290645 0.393858,-2.120778 z"
     fill="#e1e7ef"
     id="path74"
     style="stroke-width:0.302969" />
  <path
     d="m 79.942196,61.421497 a 1.6057321,1.6057321 0 0 1 -0.533224,0.448392 c -0.536254,0.245404 -1.160369,0 -1.748128,0.02727 -0.587758,0.02727 -1.181576,0.348412 -1.790543,0.396886 a 4.6657122,4.6657122 0 0 1 -1.272467,-0.157541 c -0.802865,-0.166632 -1.675414,-0.260553 -2.423747,0.103008 -0.748331,0.363558 -1.211873,1.345184 -0.775598,2.038981 -0.475661,0.669558 -1.399715,0.884667 -2.214698,0.772561 -1.908702,-0.269636 -3.508374,-1.911729 -5.45343,-0.639258 -0.845282,0.560493 -0.790748,1.426976 -0.772571,2.266197 -0.05452,-0.151477 -0.103008,-0.302966 -0.151482,-0.457479 a 8.677013,8.677013 0 0 1 -0.260553,-1.133105 8.8890908,8.8890908 0 0 1 17.372203,-3.665912 z"
     fill="url(#84e2b2cb-4695-4b74-8c91-208d34301889)"
     id="path76"
     style="fill:url(#84e2b2cb-4695-4b74-8c91-208d34301889);stroke-width:0.302969" />
  <path
     d="m 62.227637,68.271611 a 3.702273,3.702273 0 0 1 -1.327001,0.448388 2.4964591,2.4964591 0 0 1 -1.575434,-0.06972 2.0813924,2.0813924 0 0 1 -0.87558,-0.975561 c -1.120982,-2.223786 -0.254493,-4.926261 -0.730153,-7.371221 -0.19996,-1.030092 -0.639264,-2.090481 -0.327207,-3.090276 0.312058,-0.999796 1.3573,-1.669357 2.238937,-2.317708 a 13.282131,13.282131 0 0 0 3.332652,-3.568964 c 0.469601,-0.739243 0.890727,-1.554228 1.61785,-2.035947 0.854371,-0.569581 1.963235,-0.569581 2.97818,-0.415067 1.014943,0.154514 2.020797,0.442335 3.04786,0.38174 0.636234,-0.03636 1.260349,-0.209048 1.896583,-0.269641 a 10.706901,10.706901 0 0 1 2.220757,0.09695 c 0.872549,0.09695 1.775395,0.206019 2.526756,0.660471 1.323971,0.799837 1.839017,2.423743 2.184401,3.938585 0.345385,1.514842 0.693798,3.144811 1.863255,4.153696 a 1.0543298,1.0543298 0 0 1 0.418097,0.521105 0.90890498,0.90890498 0 0 1 -0.263583,0.684709 l -1.381535,1.835989 a 2.0420065,2.0420065 0 0 1 -0.718035,0.684708 c -0.533224,0.248434 -1.160368,0 -1.748127,0.02424 -0.587758,0.02424 -1.178547,0.354473 -1.790543,0.399918 a 4.544525,4.544525 0 0 1 -1.272466,-0.157544 c -0.802866,-0.166633 -1.675416,-0.260552 -2.408599,0.103008 -0.733182,0.363561 -1.211874,1.345177 -0.775599,2.038974 -0.47869,0.66956 -1.402743,0.887693 -2.214699,0.772573 -1.911729,-0.26662 -3.511403,-1.911731 -5.453429,-0.63927 -1.575436,1.054328 0.03333,3.217522 -1.463338,4.165819 z"
     fill="#585268"
     id="path78"
     style="stroke-width:0.302969" />
  <g
     opacity="0.1"
     id="g84"
     transform="matrix(0.30296832,0,0,0.30296832,-35.52812,-69.730464)">
    <path
       d="m 443,435.59 c 0.88,3.81 1.76,7.88 3.86,11.07 a 51.91,51.91 0 0 1 -2.28,-8 29.1,29.1 0 0 0 -3.48,-9.31 39.4,39.4 0 0 1 1.9,6.24 z"
       transform="translate(-65.09,-31.25)"
       id="path80" />
    <path
       d="m 450.72,452.33 -0.31,-0.29 a 5.32,5.32 0 0 1 -0.75,1.25 l -4.56,6.06 a 6.82,6.82 0 0 1 -2.37,2.26 c -1.76,0.82 -3.83,0 -5.77,0.08 -1.94,0.08 -3.89,1.17 -5.91,1.32 a 15,15 0 0 1 -4.2,-0.52 c -2.65,-0.55 -5.53,-0.86 -8,0.34 -2.47,1.2 -4,4.44 -2.56,6.73 -1.58,2.21 -4.62,2.93 -7.31,2.55 -6.3,-0.88 -11.58,-6.31 -18,-2.11 -5.25,3.46 0.06,10.6 -4.89,13.73 a 12.11,12.11 0 0 1 -4.37,1.48 c -1.74,0.33 -3.62,0.56 -5.2,-0.23 a 5.57,5.57 0 0 1 -2,-1.79 14.7,14.7 0 0 0 0.69,1.59 6.87,6.87 0 0 0 2.89,3.22 8.24,8.24 0 0 0 5.2,0.23 12.22,12.22 0 0 0 4.38,-1.48 c 4.94,-3.13 -0.37,-10.27 4.89,-13.73 6.37,-4.2 11.65,1.23 18,2.11 2.68,0.38 5.73,-0.34 7.31,-2.55 -1.44,-2.29 0.13,-5.53 2.56,-6.73 2.43,-1.2 5.3,-0.89 7.95,-0.34 a 15,15 0 0 0 4.2,0.52 c 2,-0.15 3.89,-1.23 5.91,-1.32 2.02,-0.09 4,0.74 5.77,-0.08 a 6.74,6.74 0 0 0 2.37,-2.26 l 4.56,-6.06 a 3,3 0 0 0 0.87,-2.26 3.48,3.48 0 0 0 -1.35,-1.72 z"
       transform="translate(-65.09,-31.25)"
       id="path82" />
  </g>
  <path
     d="m 152.10016,53.835169 c 0,0 2.36618,4.241557 1.86326,4.944443 -0.50293,0.702887 -1.86326,-4.944443 -1.86326,-4.944443 z"
     opacity="0.1"
     id="path86"
     style="stroke-width:0.302969" />
  <path
     d="m 159.88038,52.592998 c 0,0 1.49062,2.608559 1.18765,3.126635"
     opacity="0.1"
     id="path88"
     style="stroke-width:0.302969" />
  <path
     d="m 168.8119,46.560903 c 0,0 1.72388,1.211873 1.08463,1.999592"
     opacity="0.1"
     id="path90"
     style="stroke-width:0.302969" />
  <path
     d="m 170.54791,45.897402 c 0,0 2.19046,2.67824 1.46333,3.408393"
     opacity="0.1"
     id="path92"
     style="stroke-width:0.302969" />
  <path
     d="m 200.66901,38.556479 c 0,0 0.33328,4.480902 1.65118,4.099162 1.31791,-0.38174 -1.65118,-4.099162 -1.65118,-4.099162 z"
     opacity="0.1"
     id="path94"
     style="stroke-width:0.302969" />
  <path
     d="m 93.655222,28.782031 a 1.1988822,1.1988822 0 0 0 -0.38837,-1.54926 0.51079138,0.51079138 0 0 1 -0.101314,-0.08865 v 0 a 0.60366254,0.60366254 0 0 1 0.590998,-0.992032 v 0 a 0.56566979,0.56566979 0 0 1 0.126643,0.05066 1.2031037,1.2031037 0 0 0 1.553481,-0.384149 0.5150128,0.5150128 0 0 1 0.08443,-0.105536 v 0 a 0.60366254,0.60366254 0 0 1 0.992033,0.59522 v 0 a 0.62476962,0.62476962 0 0 1 -0.05066,0.122421 1.2031037,1.2031037 0 0 0 0.388371,1.553481 0.51079138,0.51079138 0 0 1 0.101314,0.08865 v 0 a 0.59944112,0.59944112 0 0 1 -0.590999,0.987811 v 0 a 0.42214164,0.42214164 0 0 1 -0.126642,-0.05066 1.2073251,1.2073251 0 0 0 -1.553481,0.388371 0.53611988,0.53611988 0 0 1 -0.08865,0.105535 v 0 a 0.60366254,0.60366254 0 0 1 -0.987812,-0.59522 v 0 a 0.79362628,0.79362628 0 0 1 0.05066,-0.126642 z"
     fill="#00b0ff"
     opacity="0.3"
     id="path188"
     style="stroke-width:0.422142;fill:#f9f9f9;opacity:1" />
  <path
     d="m 122.58828,94.756099 a 1.1988822,1.1988822 0 0 0 -0.38837,-1.54926 0.51079138,0.51079138 0 0 1 -0.10131,-0.08865 v 0 a 0.60366254,0.60366254 0 0 1 0.591,-0.992032 v 0 a 0.56566979,0.56566979 0 0 1 0.12664,0.05066 1.2031037,1.2031037 0 0 0 1.55348,-0.384149 0.5150128,0.5150128 0 0 1 0.0844,-0.105536 v 0 a 0.60366254,0.60366254 0 0 1 0.99203,0.59522 v 0 a 0.62476962,0.62476962 0 0 1 -0.0507,0.122421 1.2031037,1.2031037 0 0 0 0.38838,1.553481 0.51079138,0.51079138 0 0 1 0.10131,0.08865 v 0 a 0.59944112,0.59944112 0 0 1 -0.591,0.987811 v 0 a 0.42214164,0.42214164 0 0 1 -0.12664,-0.05066 1.2073251,1.2073251 0 0 0 -1.55348,0.388371 0.53611988,0.53611988 0 0 1 -0.0887,0.105535 v 0 a 0.60366254,0.60366254 0 0 1 -0.98781,-0.59522 v 0 a 0.79362628,0.79362628 0 0 1 0.0507,-0.126642 z"
     fill="#00b0ff"
     opacity="0.3"
     id="path188-8"
     style="opacity:1;fill:#f9f9f9;stroke-width:0.422142" />
  <path
     d="m 29.788034,64.342572 a 1.1988822,1.1988822 0 0 0 -0.38837,-1.54926 0.51079138,0.51079138 0 0 1 -0.101314,-0.08865 v 0 a 0.60366254,0.60366254 0 0 1 0.590998,-0.992032 v 0 a 0.56566979,0.56566979 0 0 1 0.126643,0.05066 1.2031037,1.2031037 0 0 0 1.553481,-0.384149 0.5150128,0.5150128 0 0 1 0.08443,-0.105536 v 0 a 0.60366254,0.60366254 0 0 1 0.992033,0.59522 v 0 a 0.62476962,0.62476962 0 0 1 -0.05066,0.122421 1.2031037,1.2031037 0 0 0 0.388371,1.553481 0.51079138,0.51079138 0 0 1 0.101314,0.08865 v 0 a 0.59944112,0.59944112 0 0 1 -0.590999,0.987811 v 0 a 0.42214164,0.42214164 0 0 1 -0.126642,-0.05066 1.2073251,1.2073251 0 0 0 -1.553481,0.388371 0.53611988,0.53611988 0 0 1 -0.08865,0.105535 v 0 a 0.60366254,0.60366254 0 0 1 -0.987812,-0.59522 v 0 a 0.79362628,0.79362628 0 0 1 0.05066,-0.126642 z"
     fill="#00b0ff"
     opacity="0.3"
     id="path188-9"
     style="opacity:1;fill:#f9f9f9;stroke-width:0.422142" />
  <path
     d="m 180.68592,91.636763 a 1.1988822,1.1988822 0 0 0 -0.38837,-1.54926 0.51079138,0.51079138 0 0 1 -0.10132,-0.08865 v 0 a 0.60366254,0.60366254 0 0 1 0.591,-0.992032 v 0 a 0.56566979,0.56566979 0 0 1 0.12665,0.05066 1.2031037,1.2031037 0 0 0 1.55348,-0.384149 0.5150128,0.5150128 0 0 1 0.0844,-0.105536 v 0 a 0.60366254,0.60366254 0 0 1 0.99203,0.59522 v 0 a 0.62476962,0.62476962 0 0 1 -0.0507,0.122421 1.2031037,1.2031037 0 0 0 0.38837,1.553481 0.51079138,0.51079138 0 0 1 0.10131,0.08865 v 0 a 0.59944112,0.59944112 0 0 1 -0.59099,0.987811 v 0 a 0.42214164,0.42214164 0 0 1 -0.12665,-0.05066 1.2073251,1.2073251 0 0 0 -1.55348,0.388371 0.53611988,0.53611988 0 0 1 -0.0887,0.105535 v 0 a 0.60366254,0.60366254 0 0 1 -0.98781,-0.59522 v 0 a 0.79362628,0.79362628 0 0 1 0.0507,-0.126642 z"
     fill="#00b0ff"
     opacity="0.3"
     id="path188-7"
     style="opacity:1;fill:#f9f9f9;stroke-width:0.422142" />
  <path
     d="m 142.08413,143.49573 a 1.1988822,1.1988822 0 0 0 -0.38837,-1.54926 0.51079138,0.51079138 0 0 1 -0.10131,-0.0887 v 0 a 0.60366254,0.60366254 0 0 1 0.591,-0.99204 v 0 a 0.56566979,0.56566979 0 0 1 0.12664,0.0507 1.2031037,1.2031037 0 0 0 1.55348,-0.38415 0.5150128,0.5150128 0 0 1 0.0844,-0.10553 v 0 a 0.60366254,0.60366254 0 0 1 0.99203,0.59522 v 0 a 0.62476962,0.62476962 0 0 1 -0.0507,0.12242 1.2031037,1.2031037 0 0 0 0.38838,1.55348 0.51079138,0.51079138 0 0 1 0.10131,0.0887 v 0 a 0.59944112,0.59944112 0 0 1 -0.591,0.98781 v 0 a 0.42214164,0.42214164 0 0 1 -0.12664,-0.0507 1.2073251,1.2073251 0 0 0 -1.55348,0.38837 0.53611988,0.53611988 0 0 1 -0.0887,0.10554 v 0 a 0.60366254,0.60366254 0 0 1 -0.98781,-0.59522 v 0 a 0.79362628,0.79362628 0 0 1 0.0507,-0.12664 z"
     fill="#00b0ff"
     opacity="0.3"
     id="path188-3"
     style="opacity:1;fill:#f9f9f9;stroke-width:0.422142" />
</svg>
