<?xml version="1.0" encoding="UTF-8" standalone="no"?>
<svg
   xmlns:dc="http://purl.org/dc/elements/1.1/"
   xmlns:cc="http://creativecommons.org/ns#"
   xmlns:rdf="http://www.w3.org/1999/02/22-rdf-syntax-ns#"
   xmlns:svg="http://www.w3.org/2000/svg"
   xmlns="http://www.w3.org/2000/svg"
   xmlns:sodipodi="http://sodipodi.sourceforge.net/DTD/sodipodi-0.dtd"
   xmlns:inkscape="http://www.inkscape.org/namespaces/inkscape"
   id="Layer_3"
   data-name="Layer 3"
   viewBox="0 0 199.33 199.178"
   version="1.1"
   sodipodi:docname="services-icon-3.svg"
   inkscape:version="1.0 (b51213c273, 2020-08-10)">
  <metadata
     id="metadata15">
    <rdf:RDF>
      <cc:Work
         rdf:about="">
        <dc:format>image/svg+xml</dc:format>
        <dc:type
           rdf:resource="http://purl.org/dc/dcmitype/StillImage" />
      </cc:Work>
    </rdf:RDF>
  </metadata>
  <sodipodi:namedview
     pagecolor="#ffffff"
     bordercolor="#666666"
     borderopacity="1"
     objecttolerance="10"
     gridtolerance="10"
     guidetolerance="10"
     inkscape:pageopacity="0"
     inkscape:pageshadow="2"
     inkscape:window-width="1360"
     inkscape:window-height="731"
     id="namedview13"
     showgrid="false"
     inkscape:zoom="2.4199461"
     inkscape:cx="99.665001"
     inkscape:cy="138.83486"
     inkscape:window-x="0"
     inkscape:window-y="0"
     inkscape:window-maximized="1"
     inkscape:current-layer="Layer_3" />
  <defs
     id="defs4">
    <style
       id="style2">.cls-1{fill:#00bfd8;}</style>
  </defs>
  <title
     id="title6">services-icon-3</title>
  <path
     d="m 181.24676,152.50188 -31.24578,-13.53355 c -0.73534,-0.36767 -1.55061,-1.26607 -2.25079,-2.465 l 20.86142,-0.016 c 0.36448,0.0352 8.96482,0.82167 15.86108,-2.14209 2.61207,-1.1254 4.55594,-3.34742 5.33605,-6.09697 0.7865,-2.77513 0.28774,-5.71332 -1.36199,-8.06642 -5.96269,-8.48524 -19.8799,-30.657502 -20.31471,-53.146278 -0.01,-0.386855 -1.26927,-38.631202 -39.03724,-38.941325 -5.55985,0.04476 -10.70087,0.98792 -15.37831,2.727171 -1.01989,-2.599285 -2.52255,-5.310471 -4.75736,-7.861799 -6.56376,-7.494117 -17.219872,-11.292335 -31.674202,-11.292335 -14.454329,0 -25.110441,3.798218 -31.677393,11.285951 -7.570859,8.63551 -6.867485,19.106187 -6.688445,20.861424 v 17.005658 c -2.046178,2.330724 -3.197153,5.313668 -3.197153,8.392527 v 12.788612 c 0,3.890936 1.768026,7.519705 4.786138,9.93995 2.928593,11.596074 9.057535,20.333894 11.199628,23.137794 v 10.57938 c 0,3.09485 -1.688097,5.93392 -4.40248,7.4174 L 18.783419,148.63333 C 9.5084785,153.69762 3.7504054,163.39778 3.7504054,173.96117 v 13.54954 h 140.6747446 6.39431 44.76014 v -11.81988 c 0,-9.88559 -5.49271,-18.76729 -14.33284,-23.18895 z M 144.42515,181.1164 H 10.144711 v -7.15523 c 0,-8.21988 4.482409,-15.77475 11.698384,-19.70725 l 28.521804,-15.55735 c 4.773349,-2.60568 7.73711,-7.60283 7.73711,-13.03479 v -12.84936 l -0.744936,-0.88881 c -0.07673,-0.0927 -7.912954,-9.57227 -10.902293,-22.587884 L 46.163839,88.069653 45.07361,87.36628 C 43.222458,86.170544 42.116243,84.165929 42.116243,82.004654 V 69.216041 c 0,-1.793603 0.760923,-3.465714 2.142093,-4.715801 l 1.055061,-0.949555 v -19.91187 l -0.02877,-0.418827 c -0.0096,-0.08632 -1.096623,-8.948831 5.131431,-16.052906 5.297683,-6.042619 14.339232,-9.105491 26.868875,-9.105491 12.484884,0 21.507253,3.040492 26.811337,9.041548 2.63765,2.979747 3.96447,6.307983 4.62628,9.166238 0.0511,0.223801 0.0991,0.444405 0.14387,0.665008 0.0448,0.226998 0.0927,0.453996 0.12789,0.671402 0.0416,0.249378 0.0767,0.485968 0.1119,0.722557 0.0256,0.169449 0.0511,0.342095 0.0703,0.50515 0.048,0.396447 0.0863,0.780106 0.1119,1.13499 0.003,0.02877 0.003,0.05435 0.003,0.08313 0.0224,0.345292 0.0384,0.671402 0.048,0.968737 0,0.05755 0,0.105506 0.003,0.163055 0.006,0.265363 0.006,0.517939 0.003,0.738542 0,0.03197 0,0.06394 0,0.09591 -0.0128,0.751331 -0.0639,1.198932 -0.0639,1.208524 l -0.0256,20.324302 1.05506,0.952752 c 1.38118,1.24689 2.1421,2.919001 2.1421,4.712604 v 12.788613 c 0,2.791114 -1.82877,5.233739 -4.54635,6.071394 l -1.59219,0.489164 -0.51154,1.582591 c -2.1389,6.653276 -5.18578,12.798208 -9.060742,18.265338 -0.949555,1.346 -1.873532,2.53854 -2.676017,3.44973 l -0.796092,0.90799 v 13.18826 c 0,0.80888 0.07993,1.60177 0.204618,2.38187 0.02558,0.16626 0.07034,0.32611 0.102309,0.49237 0.124689,0.64262 0.290941,1.27246 0.495559,1.88632 0.04796,0.14387 0.09911,0.28135 0.153463,0.42522 0.249378,0.6682 0.540319,1.31403 0.879217,1.93428 0.03837,0.0703 0.07353,0.14387 0.111901,0.21421 0.463587,0.81847 0.997511,1.59537 1.611365,2.31154 l 0.728951,0.8984 h 0.125244 c 1.09662,1.08063 2.356304,2.0206 3.788634,2.73676 l 30.5424,15.2696 c 7.65718,3.8238 12.41135,11.51615 12.41135,20.07493 z m 44.76014,0 h -38.36583 v -6.53178 c 0,-10.99501 -6.10976,-20.87741 -15.94101,-25.79463 l -21.92608,-10.96624 c 0.54032,-1.2341 0.61066,-2.64724 0.13748,-4.00923 -0.7833,-2.25399 -2.82948,-3.7087 -5.21136,-3.7087 h -7.08809 c -0.14707,-0.25897 -0.24298,-0.54351 -0.36128,-0.81847 -0.15985,-0.36767 -0.34849,-0.72895 -0.453994,-1.1158 -0.19503,-0.70977 -0.31013,-1.45151 -0.31013,-2.21243 v -10.80958 c 0.732154,-0.8952 1.502674,-1.91509 2.298764,-3.04049 3.96127,-5.59502 7.13604,-11.82307 9.44439,-18.540293 4.51118,-2.068558 7.43977,-6.528587 7.43977,-11.564103 V 69.216041 c 0,-3.078859 -1.15097,-6.061803 -3.19715,-8.392527 V 43.817856 c 0.0831,-0.799288 0.26217,-3.417757 -0.26856,-6.838711 4.11793,-1.617759 8.73143,-2.452216 13.71579,-2.493779 31.46318,0.258969 32.61096,31.36727 32.64293,32.678103 0.46998,24.244012 15.17369,47.723901 21.47528,56.691921 0.54032,0.76732 0.70337,1.73286 0.4444,2.64404 -0.14707,0.52434 -0.56909,1.47709 -1.71047,1.96625 -5.37122,2.31155 -12.65753,1.65613 -13.0316,1.64014 h -22.00601 c -2.05576,0 -3.9293,1.04547 -5.01313,2.79432 -1.08064,1.74244 -1.18295,3.87175 -0.27496,5.70052 1.00071,2.0174 2.76874,4.7126 5.67495,6.16091 l 31.16265,13.49838 c 6.61491,3.34103 10.72325,10.01029 10.72325,17.43088 z"
     id="path2"
     style="fill:#00bfd8;fill-opacity:1;stroke-width:3.19715" />
  <g
     id="g4"
     transform="translate(-99.009803,108.84607)"
     style="fill:#00bfd8;fill-opacity:1" />
  <g
     id="g6"
     transform="translate(-99.009803,108.84607)"
     style="fill:#00bfd8;fill-opacity:1" />
  <g
     id="g8"
     transform="translate(-99.009803,108.84607)"
     style="fill:#00bfd8;fill-opacity:1" />
  <g
     id="g10"
     transform="translate(-99.009803,108.84607)"
     style="fill:#00bfd8;fill-opacity:1" />
  <g
     id="g12"
     transform="translate(-99.009803,108.84607)"
     style="fill:#00bfd8;fill-opacity:1" />
  <g
     id="g14"
     transform="translate(-99.009803,108.84607)"
     style="fill:#00bfd8;fill-opacity:1" />
  <g
     id="g16"
     transform="translate(-99.009803,108.84607)"
     style="fill:#00bfd8;fill-opacity:1" />
  <g
     id="g18"
     transform="translate(-99.009803,108.84607)"
     style="fill:#00bfd8;fill-opacity:1" />
  <g
     id="g20"
     transform="translate(-99.009803,108.84607)"
     style="fill:#00bfd8;fill-opacity:1" />
  <g
     id="g22"
     transform="translate(-99.009803,108.84607)"
     style="fill:#00bfd8;fill-opacity:1" />
  <g
     id="g24"
     transform="translate(-99.009803,108.84607)"
     style="fill:#00bfd8;fill-opacity:1" />
  <g
     id="g26"
     transform="translate(-99.009803,108.84607)"
     style="fill:#00bfd8;fill-opacity:1" />
  <g
     id="g28"
     transform="translate(-99.009803,108.84607)"
     style="fill:#00bfd8;fill-opacity:1" />
  <g
     id="g30"
     transform="translate(-99.009803,108.84607)"
     style="fill:#00bfd8;fill-opacity:1" />
  <g
     id="g32"
     transform="translate(-99.009803,108.84607)"
     style="fill:#00bfd8;fill-opacity:1" />
</svg>
