<?xml version="1.0" encoding="UTF-8" standalone="no"?>
<svg
   xmlns:dc="http://purl.org/dc/elements/1.1/"
   xmlns:cc="http://creativecommons.org/ns#"
   xmlns:rdf="http://www.w3.org/1999/02/22-rdf-syntax-ns#"
   xmlns:svg="http://www.w3.org/2000/svg"
   xmlns="http://www.w3.org/2000/svg"
   xmlns:sodipodi="http://sodipodi.sourceforge.net/DTD/sodipodi-0.dtd"
   xmlns:inkscape="http://www.inkscape.org/namespaces/inkscape"
   id="Layer_2"
   data-name="Layer 2"
   viewBox="0 0 199.421 199.423"
   version="1.1"
   sodipodi:docname="services-icon-2.svg"
   inkscape:version="1.0 (b51213c273, 2020-08-10)">
  <metadata
     id="metadata23">
    <rdf:RDF>
      <cc:Work
         rdf:about="">
        <dc:format>image/svg+xml</dc:format>
        <dc:type
           rdf:resource="http://purl.org/dc/dcmitype/StillImage" />
      </cc:Work>
    </rdf:RDF>
  </metadata>
  <sodipodi:namedview
     pagecolor="#ffffff"
     bordercolor="#666666"
     borderopacity="1"
     objecttolerance="10"
     gridtolerance="10"
     guidetolerance="10"
     inkscape:pageopacity="0"
     inkscape:pageshadow="2"
     inkscape:window-width="1360"
     inkscape:window-height="731"
     id="namedview21"
     showgrid="false"
     inkscape:snap-bbox="true"
     inkscape:bbox-paths="true"
     inkscape:bbox-nodes="true"
     inkscape:snap-bbox-edge-midpoints="true"
     inkscape:snap-bbox-midpoints="true"
     inkscape:zoom="2.4169729"
     inkscape:cx="99.710503"
     inkscape:cy="99.711502"
     inkscape:window-x="0"
     inkscape:window-y="0"
     inkscape:window-maximized="1"
     inkscape:current-layer="Layer_2" />
  <defs
     id="defs4">
    <style
       id="style2">.cls-1{fill:#00bfd8;}</style>
  </defs>
  <title
     id="title6">services-icon-2</title>
  <g
     id="g14"
     transform="matrix(3.0882052,0,0,3.0882052,7.0643466,7.0653461)"
     style="fill:#00bfd8;fill-opacity:1">
    <path
       d="M 42.595,0 H 17.405 C 14.977,0 13,1.977 13,4.405 V 55.594 C 13,58.023 14.977,60 17.405,60 H 42.594 C 45.023,60 47,58.023 47,55.595 V 4.405 C 47,1.977 45.023,0 42.595,0 Z M 15,8 H 45 V 46 H 15 Z M 17.405,2 H 42.594 C 43.921,2 45,3.079 45,4.405 V 6 H 15 V 4.405 C 15,3.079 16.079,2 17.405,2 Z m 25.19,56 H 17.405 C 16.079,58 15,56.921 15,55.595 V 48 h 30 v 7.595 C 45,56.921 43.921,58 42.595,58 Z"
       id="path2"
       style="fill:#00bfd8;fill-opacity:1" />
    <path
       d="m 30,49 c -2.206,0 -4,1.794 -4,4 0,2.206 1.794,4 4,4 2.206,0 4,-1.794 4,-4 0,-2.206 -1.794,-4 -4,-4 z m 0,6 c -1.103,0 -2,-0.897 -2,-2 0,-1.103 0.897,-2 2,-2 1.103,0 2,0.897 2,2 0,1.103 -0.897,2 -2,2 z"
       id="path4"
       style="fill:#00bfd8;fill-opacity:1" />
    <path
       d="m 26,5 h 4 C 30.553,5 31,4.553 31,4 31,3.447 30.553,3 30,3 h -4 c -0.553,0 -1,0.447 -1,1 0,0.553 0.447,1 1,1 z"
       id="path6"
       style="fill:#00bfd8;fill-opacity:1" />
    <path
       d="m 33,5 h 1 C 34.553,5 35,4.553 35,4 35,3.447 34.553,3 34,3 h -1 c -0.553,0 -1,0.447 -1,1 0,0.553 0.447,1 1,1 z"
       id="path8-3"
       style="fill:#00bfd8;fill-opacity:1" />
    <path
       d="m 38,21 c 2.757,0 5,-2.243 5,-5 0,-2.757 -2.243,-5 -5,-5 H 22 c -2.757,0 -5,2.243 -5,5 V 26.414 L 22.414,21 Z M 19,21.586 V 16 c 0,-1.654 1.346,-3 3,-3 h 16 c 1.654,0 3,1.346 3,3 0,1.654 -1.346,3 -3,3 H 21.586 Z"
       id="path10-6"
       style="fill:#00bfd8;fill-opacity:1" />
    <path
       d="M 38,28 H 22 c -2.757,0 -5,2.243 -5,5 0,2.757 2.243,5 5,5 H 37.586 L 43,43.414 V 33 c 0,-2.757 -2.243,-5 -5,-5 z M 41,38.586 38.414,36 H 22 c -1.654,0 -3,-1.346 -3,-3 0,-1.654 1.346,-3 3,-3 h 16 c 1.654,0 3,1.346 3,3 z"
       id="path12-7"
       style="fill:#00bfd8;fill-opacity:1" />
  </g>
  <g
     id="g16"
     transform="translate(-97.025989,109.01687)"
     style="fill:#00bfd8;fill-opacity:1" />
  <g
     id="g18"
     transform="translate(-97.025989,109.01687)"
     style="fill:#00bfd8;fill-opacity:1" />
  <g
     id="g20"
     transform="translate(-97.025989,109.01687)"
     style="fill:#00bfd8;fill-opacity:1" />
  <g
     id="g22"
     transform="translate(-97.025989,109.01687)"
     style="fill:#00bfd8;fill-opacity:1" />
  <g
     id="g24"
     transform="translate(-97.025989,109.01687)"
     style="fill:#00bfd8;fill-opacity:1" />
  <g
     id="g26"
     transform="translate(-97.025989,109.01687)"
     style="fill:#00bfd8;fill-opacity:1" />
  <g
     id="g28"
     transform="translate(-97.025989,109.01687)"
     style="fill:#00bfd8;fill-opacity:1" />
  <g
     id="g30"
     transform="translate(-97.025989,109.01687)"
     style="fill:#00bfd8;fill-opacity:1" />
  <g
     id="g32"
     transform="translate(-97.025989,109.01687)"
     style="fill:#00bfd8;fill-opacity:1" />
  <g
     id="g34"
     transform="translate(-97.025989,109.01687)"
     style="fill:#00bfd8;fill-opacity:1" />
  <g
     id="g36"
     transform="translate(-97.025989,109.01687)"
     style="fill:#00bfd8;fill-opacity:1" />
  <g
     id="g38"
     transform="translate(-97.025989,109.01687)"
     style="fill:#00bfd8;fill-opacity:1" />
  <g
     id="g40"
     transform="translate(-97.025989,109.01687)"
     style="fill:#00bfd8;fill-opacity:1" />
  <g
     id="g42"
     transform="translate(-97.025989,109.01687)"
     style="fill:#00bfd8;fill-opacity:1" />
  <g
     id="g44"
     transform="translate(-97.025989,109.01687)"
     style="fill:#00bfd8;fill-opacity:1" />
</svg>
